<svg width="113" height="90" viewBox="0 0 113 90" fill="none" xmlns="http://www.w3.org/2000/svg">
<rect x="0.5" y="0.5" width="112" height="89" rx="9.5" fill="#F3F3F3" stroke="#707070" stroke-dasharray="5 5"/>
<circle cx="56.5" cy="34.5" r="15.5" fill="#E7E7E7"/>
<path d="M52.7401 41.6761H60.2605C62.241 41.6761 63.0304 40.4633 63.1237 38.9851L63.4968 33.0578C63.5973 31.5078 62.363 30.1946 60.8059 30.1946C60.3681 30.1946 59.9663 29.9434 59.7653 29.5559L59.2487 28.5154C58.9186 27.8624 58.0575 27.3242 57.3255 27.3242H55.6822C54.9431 27.3242 54.082 27.8624 53.7519 28.5154L53.2353 29.5559C53.0343 29.9434 52.6325 30.1946 52.1947 30.1946C50.6376 30.1946 49.4033 31.5078 49.5038 33.0578L49.8769 38.9851C49.963 40.4633 50.7596 41.6761 52.7401 41.6761Z" fill="#707070"/>
<path d="M55.4233 31.6299H57.5761" stroke="white" stroke-width="0.833333" stroke-linecap="round" stroke-linejoin="round"/>
<path d="M56.4997 38.805C57.7841 38.805 58.8318 37.7573 58.8318 36.4728C58.8318 35.1883 57.7841 34.1406 56.4997 34.1406C55.2152 34.1406 54.1675 35.1883 54.1675 36.4728C54.1675 37.7573 55.2152 38.805 56.4997 38.805Z" stroke="white" stroke-width="0.833333" stroke-linecap="round" stroke-linejoin="round"/>
<path d="M30.46 63.048H33.328L33.172 62.58L31.912 58.692C31.816 59.036 31.384 60.336 30.616 62.592L30.46 63.048ZM34.312 66L33.604 63.876H30.184L29.464 66H28.42L31.24 57.912H32.584L35.356 66H34.312ZM39.1532 65.232C39.6492 65.232 40.0692 65.048 40.4133 64.68C40.7653 64.312 40.9413 63.724 40.9413 62.916C40.9413 62.148 40.7613 61.584 40.4012 61.224C40.0412 60.864 39.6453 60.684 39.2133 60.684C38.7092 60.684 38.2892 60.888 37.9532 61.296C37.6252 61.696 37.4612 62.272 37.4612 63.024C37.4612 63.68 37.6212 64.212 37.9412 64.62C38.2612 65.028 38.6652 65.232 39.1532 65.232ZM40.9413 57.516H41.8893V66H40.9413V65.1C40.5093 65.764 39.8853 66.096 39.0692 66.096C38.2612 66.096 37.6252 65.796 37.1612 65.196C36.7052 64.596 36.4772 63.868 36.4772 63.012C36.4772 62.06 36.7212 61.292 37.2092 60.708C37.6972 60.116 38.3252 59.82 39.0932 59.82C39.8852 59.82 40.5013 60.16 40.9413 60.84V57.516ZM46.1418 65.232C46.6378 65.232 47.0578 65.048 47.4018 64.68C47.7538 64.312 47.9298 63.724 47.9298 62.916C47.9298 62.148 47.7498 61.584 47.3898 61.224C47.0298 60.864 46.6338 60.684 46.2018 60.684C45.6978 60.684 45.2778 60.888 44.9418 61.296C44.6138 61.696 44.4498 62.272 44.4498 63.024C44.4498 63.68 44.6098 64.212 44.9298 64.62C45.2498 65.028 45.6538 65.232 46.1418 65.232ZM47.9298 57.516H48.8778V66H47.9298V65.1C47.4978 65.764 46.8738 66.096 46.0578 66.096C45.2498 66.096 44.6138 65.796 44.1498 65.196C43.6938 64.596 43.4658 63.868 43.4658 63.012C43.4658 62.06 43.7098 61.292 44.1978 60.708C44.6858 60.116 45.3138 59.82 46.0818 59.82C46.8738 59.82 47.4898 60.16 47.9298 60.84V57.516ZM56.6001 65.232C57.1121 65.232 57.5321 65.032 57.8601 64.632C58.1881 64.224 58.3521 63.648 58.3521 62.904C58.3521 62.24 58.1921 61.704 57.8721 61.296C57.5521 60.888 57.1481 60.684 56.6601 60.684C56.1721 60.684 55.7481 60.864 55.3881 61.224C55.0361 61.576 54.8601 62.156 54.8601 62.964C54.8601 63.74 55.0401 64.312 55.4001 64.68C55.7601 65.048 56.1601 65.232 56.6001 65.232ZM54.8601 59.916V60.84C55.2841 60.16 55.9121 59.82 56.7441 59.82C57.5521 59.82 58.1841 60.116 58.6401 60.708C59.1041 61.292 59.3361 62.024 59.3361 62.904C59.3361 63.84 59.0921 64.608 58.6041 65.208C58.1241 65.8 57.4961 66.096 56.7201 66.096C55.9201 66.096 55.3001 65.756 54.8601 65.076V68.364H53.9241V59.916H54.8601ZM61.8487 57.516V60.972C62.2087 60.212 62.8487 59.832 63.7687 59.832C64.3527 59.832 64.8207 60.012 65.1727 60.372C65.5327 60.732 65.7127 61.22 65.7127 61.836V66H64.7647V62.064C64.7647 61.624 64.6487 61.284 64.4167 61.044C64.1927 60.804 63.8967 60.684 63.5287 60.684C63.0807 60.684 62.6887 60.856 62.3527 61.2C62.0167 61.544 61.8487 62.036 61.8487 62.676V66H60.9127V57.516H61.8487ZM70.0452 66.108C69.1732 66.108 68.4812 65.816 67.9692 65.232C67.4652 64.64 67.2132 63.896 67.2132 63C67.2132 62.096 67.4732 61.344 67.9932 60.744C68.5212 60.136 69.2052 59.832 70.0452 59.832C70.9652 59.832 71.6732 60.128 72.1692 60.72C72.6732 61.312 72.9252 62.064 72.9252 62.976C72.9252 63.88 72.6692 64.628 72.1572 65.22C71.6452 65.812 70.9412 66.108 70.0452 66.108ZM70.0452 60.672C69.4692 60.672 69.0172 60.896 68.6892 61.344C68.3612 61.792 68.1972 62.34 68.1972 62.988C68.1972 63.62 68.3652 64.16 68.7012 64.608C69.0372 65.048 69.4852 65.268 70.0452 65.268C70.6532 65.268 71.1212 65.052 71.4492 64.62C71.7772 64.18 71.9412 63.636 71.9412 62.988C71.9412 62.316 71.7852 61.764 71.4732 61.332C71.1612 60.892 70.6852 60.672 70.0452 60.672ZM75.7995 60.684V64.248C75.7995 64.896 76.1035 65.22 76.7115 65.22C77.0235 65.22 77.2995 65.128 77.5395 64.944V65.844C77.2755 65.988 76.9795 66.06 76.6515 66.06C75.4515 66.06 74.8515 65.448 74.8515 64.224V60.684H73.8795V59.916H74.8515V58.404H75.7995V59.916H77.4795V60.684H75.7995ZM81.5732 66.108C80.7012 66.108 80.0092 65.816 79.4972 65.232C78.9932 64.64 78.7412 63.896 78.7412 63C78.7412 62.096 79.0012 61.344 79.5212 60.744C80.0492 60.136 80.7332 59.832 81.5732 59.832C82.4932 59.832 83.2012 60.128 83.6972 60.72C84.2012 61.312 84.4532 62.064 84.4532 62.976C84.4532 63.88 84.1972 64.628 83.6852 65.22C83.1732 65.812 82.4692 66.108 81.5732 66.108ZM81.5732 60.672C80.9972 60.672 80.5452 60.896 80.2172 61.344C79.8892 61.792 79.7252 62.34 79.7252 62.988C79.7252 63.62 79.8932 64.16 80.2292 64.608C80.5652 65.048 81.0132 65.268 81.5732 65.268C82.1812 65.268 82.6492 65.052 82.9772 64.62C83.3052 64.18 83.4692 63.636 83.4692 62.988C83.4692 62.316 83.3132 61.764 83.0012 61.332C82.6892 60.892 82.2132 60.672 81.5732 60.672Z" fill="#292929"/>
</svg>
