<svg width="474" height="172" viewBox="0 0 474 172" fill="none" xmlns="http://www.w3.org/2000/svg">
<rect x="0.5" y="0.5" width="473" height="171" rx="9.5" fill="#F3F3F3" stroke="#707070" stroke-dasharray="5 5"/>
<circle cx="236.5" cy="68.5" r="22.5" fill="#E7E7E7"/>
<path d="M231.042 78.9173H241.959C244.834 78.9173 245.98 77.1569 246.115 75.0111L246.657 66.4069C246.803 64.1569 245.011 62.2507 242.751 62.2507C242.115 62.2507 241.532 61.8861 241.24 61.3236L240.49 59.8132C240.011 58.8652 238.761 58.084 237.698 58.084H235.313C234.24 58.084 232.99 58.8652 232.511 59.8132L231.761 61.3236C231.469 61.8861 230.886 62.2507 230.251 62.2507C227.99 62.2507 226.198 64.1569 226.344 66.4069L226.886 75.0111C227.011 77.1569 228.167 78.9173 231.042 78.9173Z" fill="#707070"/>
<path d="M234.938 64.334H238.062" stroke="white" stroke-width="0.833333" stroke-linecap="round" stroke-linejoin="round"/>
<path d="M236.5 74.7493C238.364 74.7493 239.885 73.2285 239.885 71.3639C239.885 69.4993 238.364 67.9785 236.5 67.9785C234.635 67.9785 233.114 69.4993 233.114 71.3639C233.114 73.2285 234.635 74.7493 236.5 74.7493Z" stroke="white" stroke-width="0.833333" stroke-linecap="round" stroke-linejoin="round"/>
<path d="M161.81 124L166.685 111.625H167.743L172.61 124H171.38L169.873 120.055H164.555L163.033 124H161.81ZM164.938 119.05H169.483L167.21 113.125L164.938 119.05ZM178.537 124.24C177.817 124.24 177.167 124.065 176.587 123.715C176.012 123.365 175.554 122.882 175.214 122.267C174.879 121.652 174.712 120.95 174.712 120.16C174.712 119.375 174.879 118.677 175.214 118.067C175.549 117.452 176.004 116.967 176.579 116.612C177.159 116.257 177.817 116.08 178.552 116.08C179.237 116.08 179.857 116.242 180.412 116.567C180.967 116.892 181.402 117.342 181.717 117.917V111.092H182.812V124H181.717V122.38C181.392 122.96 180.949 123.415 180.389 123.745C179.834 124.075 179.217 124.24 178.537 124.24ZM178.799 123.287C179.374 123.287 179.884 123.155 180.329 122.89C180.774 122.62 181.124 122.25 181.379 121.78C181.634 121.305 181.762 120.767 181.762 120.167C181.762 119.557 181.634 119.017 181.379 118.547C181.129 118.072 180.779 117.702 180.329 117.437C179.884 117.167 179.374 117.032 178.799 117.032C178.229 117.032 177.722 117.167 177.277 117.437C176.832 117.702 176.482 118.072 176.227 118.547C175.972 119.017 175.844 119.557 175.844 120.167C175.844 120.772 175.969 121.31 176.219 121.78C176.474 122.25 176.824 122.62 177.269 122.89C177.719 123.155 178.229 123.287 178.799 123.287ZM189.543 124.24C188.823 124.24 188.173 124.065 187.593 123.715C187.018 123.365 186.561 122.882 186.221 122.267C185.886 121.652 185.718 120.95 185.718 120.16C185.718 119.375 185.886 118.677 186.221 118.067C186.556 117.452 187.011 116.967 187.586 116.612C188.166 116.257 188.823 116.08 189.558 116.08C190.243 116.08 190.863 116.242 191.418 116.567C191.973 116.892 192.408 117.342 192.723 117.917V111.092H193.818V124H192.723V122.38C192.398 122.96 191.956 123.415 191.396 123.745C190.841 124.075 190.223 124.24 189.543 124.24ZM189.806 123.287C190.381 123.287 190.891 123.155 191.336 122.89C191.781 122.62 192.131 122.25 192.386 121.78C192.641 121.305 192.768 120.767 192.768 120.167C192.768 119.557 192.641 119.017 192.386 118.547C192.136 118.072 191.786 117.702 191.336 117.437C190.891 117.167 190.381 117.032 189.806 117.032C189.236 117.032 188.728 117.167 188.283 117.437C187.838 117.702 187.488 118.072 187.233 118.547C186.978 119.017 186.851 119.557 186.851 120.167C186.851 120.772 186.976 121.31 187.226 121.78C187.481 122.25 187.831 122.62 188.276 122.89C188.726 123.155 189.236 123.287 189.806 123.287ZM200.547 124L205.422 111.625H206.479L211.347 124H210.117L208.609 120.055H203.292L201.769 124H200.547ZM203.674 119.05H208.219L205.947 113.125L203.674 119.05ZM213.989 124V116.32H215.084V124H213.989ZM214.544 114.782C214.409 114.782 214.286 114.75 214.176 114.685C214.071 114.62 213.986 114.532 213.921 114.422C213.856 114.312 213.824 114.192 213.824 114.062C213.824 113.932 213.856 113.815 213.921 113.71C213.986 113.6 214.071 113.512 214.176 113.447C214.286 113.382 214.409 113.35 214.544 113.35C214.674 113.35 214.791 113.382 214.896 113.447C215.001 113.512 215.086 113.597 215.151 113.702C215.221 113.807 215.256 113.927 215.256 114.062C215.256 114.192 215.221 114.312 215.151 114.422C215.086 114.532 215.001 114.62 214.896 114.685C214.791 114.75 214.674 114.782 214.544 114.782ZM218.543 124V116.32H219.638V117.452C219.883 117.002 220.198 116.662 220.583 116.432C220.973 116.197 221.423 116.08 221.933 116.08C222.158 116.08 222.385 116.105 222.615 116.155C222.85 116.205 223.053 116.27 223.223 116.35L222.773 117.272C222.623 117.197 222.45 117.14 222.255 117.1C222.065 117.06 221.883 117.04 221.708 117.04C221.353 117.04 221.018 117.13 220.703 117.31C220.388 117.49 220.13 117.725 219.93 118.015C219.735 118.3 219.638 118.605 219.638 118.93V124H218.543ZM228.944 124.24C228.369 124.24 227.829 124.14 227.324 123.94C226.819 123.735 226.377 123.447 225.997 123.077C225.617 122.707 225.319 122.275 225.104 121.78C224.889 121.285 224.782 120.745 224.782 120.16C224.782 119.58 224.887 119.042 225.097 118.547C225.307 118.052 225.599 117.62 225.974 117.25C226.354 116.88 226.797 116.592 227.302 116.387C227.807 116.182 228.354 116.08 228.944 116.08C229.449 116.08 229.929 116.155 230.384 116.305C230.839 116.455 231.232 116.662 231.562 116.927L231.112 117.662C230.552 117.227 229.872 117.01 229.072 117.01C228.442 117.01 227.887 117.15 227.407 117.43C226.932 117.705 226.562 118.082 226.297 118.562C226.032 119.037 225.899 119.57 225.899 120.16C225.899 120.755 226.034 121.292 226.304 121.772C226.574 122.247 226.949 122.622 227.429 122.898C227.909 123.172 228.459 123.31 229.079 123.31C229.469 123.31 229.837 123.255 230.182 123.145C230.532 123.03 230.839 122.867 231.104 122.657L231.562 123.392C231.227 123.652 230.834 123.857 230.384 124.008C229.934 124.163 229.454 124.24 228.944 124.24ZM234.139 124V116.32H235.234V117.452C235.479 117.002 235.794 116.662 236.179 116.432C236.569 116.197 237.019 116.08 237.529 116.08C237.754 116.08 237.982 116.105 238.212 116.155C238.447 116.205 238.649 116.27 238.819 116.35L238.369 117.272C238.219 117.197 238.047 117.14 237.852 117.1C237.662 117.06 237.479 117.04 237.304 117.04C236.949 117.04 236.614 117.13 236.299 117.31C235.984 117.49 235.727 117.725 235.527 118.015C235.332 118.3 235.234 118.605 235.234 118.93V124H234.139ZM244.219 124.24C243.499 124.24 242.849 124.065 242.269 123.715C241.694 123.36 241.236 122.875 240.896 122.26C240.561 121.645 240.394 120.942 240.394 120.152C240.394 119.372 240.559 118.677 240.889 118.067C241.224 117.452 241.679 116.967 242.254 116.612C242.834 116.257 243.489 116.08 244.219 116.08C244.914 116.08 245.544 116.242 246.109 116.567C246.674 116.892 247.104 117.342 247.399 117.917V116.32H248.494V124H247.399V122.38C247.069 122.96 246.626 123.415 246.071 123.745C245.516 124.075 244.899 124.24 244.219 124.24ZM244.489 123.287C245.064 123.287 245.571 123.155 246.011 122.89C246.456 122.62 246.806 122.25 247.061 121.78C247.316 121.305 247.444 120.765 247.444 120.16C247.444 119.55 247.316 119.01 247.061 118.54C246.811 118.07 246.464 117.702 246.019 117.437C245.574 117.167 245.064 117.032 244.489 117.032C243.914 117.032 243.404 117.167 242.959 117.437C242.514 117.702 242.164 118.07 241.909 118.54C241.654 119.01 241.526 119.55 241.526 120.16C241.526 120.765 241.654 121.305 241.909 121.78C242.164 122.25 242.514 122.62 242.959 122.89C243.404 123.155 243.914 123.287 244.489 123.287ZM252.032 124V117.145H251.259V116.32H252.032V113.567C252.032 112.992 252.114 112.505 252.279 112.105C252.444 111.705 252.684 111.4 252.999 111.19C253.314 110.98 253.702 110.875 254.162 110.875C254.447 110.875 254.712 110.915 254.957 110.995C255.202 111.07 255.417 111.18 255.602 111.325L255.219 112.105C254.989 111.925 254.699 111.835 254.349 111.835C254.069 111.835 253.839 111.905 253.659 112.045C253.479 112.18 253.344 112.375 253.254 112.63C253.169 112.885 253.127 113.187 253.127 113.537V116.32H255.084V117.145H253.127V124H252.032ZM259.446 124.24C258.871 124.24 258.424 124.048 258.104 123.662C257.789 123.272 257.631 122.725 257.631 122.02V117.145H256.851V116.32H257.631V113.447H258.726V116.32H260.639V117.145H258.726V121.96C258.726 122.385 258.809 122.71 258.974 122.935C259.139 123.16 259.374 123.272 259.679 123.272C259.974 123.272 260.234 123.19 260.459 123.025L260.736 123.895C260.566 124 260.366 124.083 260.136 124.143C259.906 124.208 259.676 124.24 259.446 124.24ZM267.432 127.9V116.32H268.527V117.91C268.837 117.335 269.27 116.887 269.825 116.567C270.385 116.242 271.005 116.08 271.685 116.08C272.42 116.08 273.077 116.257 273.657 116.612C274.237 116.967 274.695 117.452 275.03 118.067C275.365 118.677 275.532 119.375 275.532 120.16C275.532 120.935 275.365 121.632 275.03 122.252C274.7 122.867 274.245 123.352 273.665 123.707C273.09 124.063 272.435 124.24 271.7 124.24C271.03 124.24 270.415 124.075 269.855 123.745C269.295 123.415 268.852 122.96 268.527 122.38V127.9H267.432ZM271.445 123.287C272.02 123.287 272.53 123.155 272.975 122.89C273.42 122.62 273.767 122.25 274.017 121.78C274.272 121.31 274.4 120.772 274.4 120.167C274.4 119.557 274.272 119.017 274.017 118.547C273.762 118.072 273.412 117.702 272.967 117.437C272.527 117.167 272.02 117.032 271.445 117.032C270.87 117.032 270.36 117.167 269.915 117.437C269.47 117.702 269.12 118.07 268.865 118.54C268.61 119.01 268.482 119.55 268.482 120.16C268.482 120.765 268.61 121.305 268.865 121.78C269.12 122.25 269.47 122.62 269.915 122.89C270.365 123.155 270.875 123.287 271.445 123.287ZM278.438 124V111.092H279.533V117.37C279.743 117.01 280.068 116.705 280.508 116.455C280.948 116.205 281.486 116.08 282.121 116.08C282.716 116.08 283.228 116.202 283.658 116.447C284.088 116.692 284.418 117.05 284.648 117.52C284.878 117.985 284.993 118.547 284.993 119.207V124H283.898V119.417C283.898 118.622 283.713 118.015 283.343 117.595C282.973 117.175 282.451 116.965 281.776 116.965C281.306 116.965 280.903 117.06 280.568 117.25C280.238 117.44 279.983 117.69 279.803 118C279.623 118.305 279.533 118.637 279.533 118.997V124H278.438ZM291.969 124.24C291.169 124.24 290.447 124.068 289.802 123.722C289.162 123.377 288.654 122.897 288.279 122.282C287.904 121.667 287.717 120.96 287.717 120.16C287.717 119.355 287.904 118.647 288.279 118.037C288.654 117.422 289.162 116.942 289.802 116.597C290.442 116.252 291.164 116.08 291.969 116.08C292.769 116.08 293.489 116.252 294.129 116.597C294.774 116.942 295.284 117.422 295.659 118.037C296.034 118.647 296.222 119.355 296.222 120.16C296.222 120.96 296.034 121.667 295.659 122.282C295.284 122.897 294.774 123.377 294.129 123.722C293.489 124.068 292.769 124.24 291.969 124.24ZM291.969 123.265C292.569 123.265 293.104 123.132 293.574 122.867C294.044 122.602 294.414 122.237 294.684 121.772C294.954 121.302 295.089 120.765 295.089 120.16C295.089 119.555 294.954 119.02 294.684 118.555C294.414 118.085 294.044 117.717 293.574 117.452C293.104 117.187 292.569 117.055 291.969 117.055C291.369 117.055 290.834 117.187 290.364 117.452C289.894 117.717 289.524 118.085 289.254 118.555C288.984 119.02 288.849 119.555 288.849 120.16C288.849 120.76 288.984 121.295 289.254 121.765C289.524 122.235 289.894 122.602 290.364 122.867C290.834 123.132 291.369 123.265 291.969 123.265ZM300.928 124.24C300.353 124.24 299.905 124.048 299.585 123.662C299.27 123.272 299.113 122.725 299.113 122.02V117.145H298.333V116.32H299.113V113.447H300.208V116.32H302.12V117.145H300.208V121.96C300.208 122.385 300.29 122.71 300.455 122.935C300.62 123.16 300.855 123.272 301.16 123.272C301.455 123.272 301.715 123.19 301.94 123.025L302.218 123.895C302.048 124 301.848 124.083 301.618 124.143C301.388 124.208 301.158 124.24 300.928 124.24ZM308.503 124.24C307.703 124.24 306.981 124.068 306.336 123.722C305.696 123.377 305.188 122.897 304.813 122.282C304.438 121.667 304.251 120.96 304.251 120.16C304.251 119.355 304.438 118.647 304.813 118.037C305.188 117.422 305.696 116.942 306.336 116.597C306.976 116.252 307.698 116.08 308.503 116.08C309.303 116.08 310.023 116.252 310.663 116.597C311.308 116.942 311.818 117.422 312.193 118.037C312.568 118.647 312.756 119.355 312.756 120.16C312.756 120.96 312.568 121.667 312.193 122.282C311.818 122.897 311.308 123.377 310.663 123.722C310.023 124.068 309.303 124.24 308.503 124.24ZM308.503 123.265C309.103 123.265 309.638 123.132 310.108 122.867C310.578 122.602 310.948 122.237 311.218 121.772C311.488 121.302 311.623 120.765 311.623 120.16C311.623 119.555 311.488 119.02 311.218 118.555C310.948 118.085 310.578 117.717 310.108 117.452C309.638 117.187 309.103 117.055 308.503 117.055C307.903 117.055 307.368 117.187 306.898 117.452C306.428 117.717 306.058 118.085 305.788 118.555C305.518 119.02 305.383 119.555 305.383 120.16C305.383 120.76 305.518 121.295 305.788 121.765C306.058 122.235 306.428 122.602 306.898 122.867C307.368 123.132 307.903 123.265 308.503 123.265Z" fill="#292929"/>
</svg>
