<svg width="70" height="48" viewBox="0 0 70 48" fill="none" xmlns="http://www.w3.org/2000/svg">
<g filter="url(#filter0_d_3229_15517)">
<rect x="4" width="62" height="40" rx="5" fill="#2F80ED" fill-opacity="0.1" shape-rendering="crispEdges"/>
</g>
<path d="M24 10V13" stroke="#2F80ED" stroke-width="1.5" stroke-miterlimit="10" stroke-linecap="round" stroke-linejoin="round"/>
<path d="M32 10V13" stroke="#2F80ED" stroke-width="1.5" stroke-miterlimit="10" stroke-linecap="round" stroke-linejoin="round"/>
<path d="M23 21H31" stroke="#2F80ED" stroke-width="1.5" stroke-miterlimit="10" stroke-linecap="round" stroke-linejoin="round"/>
<path d="M23 25H28" stroke="#2F80ED" stroke-width="1.5" stroke-miterlimit="10" stroke-linecap="round" stroke-linejoin="round"/>
<path d="M32 11.5C35.33 11.68 37 12.95 37 17.65V23.83C37 27.95 36 30.01 31 30.01H25C20 30.01 19 27.95 19 23.83V17.65C19 12.95 20.67 11.69 24 11.5H32Z" stroke="#2F80ED" stroke-width="1.5" stroke-miterlimit="10" stroke-linecap="round" stroke-linejoin="round"/>
<path d="M53.8254 20.6512C53.9175 20.5714 53.9175 20.4286 53.8254 20.3488L49.8309 16.8895C49.7014 16.7773 49.5 16.8693 49.5 17.0407L49.5 23.9593C49.5 24.1307 49.7014 24.2227 49.8309 24.1105L53.8254 20.6512Z" fill="#2F80ED"/>
<defs>
<filter id="filter0_d_3229_15517" x="0" y="0" width="70" height="48" filterUnits="userSpaceOnUse" color-interpolation-filters="sRGB">
<feFlood flood-opacity="0" result="BackgroundImageFix"/>
<feColorMatrix in="SourceAlpha" type="matrix" values="0 0 0 0 0 0 0 0 0 0 0 0 0 0 0 0 0 0 127 0" result="hardAlpha"/>
<feOffset dy="4"/>
<feGaussianBlur stdDeviation="2"/>
<feComposite in2="hardAlpha" operator="out"/>
<feColorMatrix type="matrix" values="0 0 0 0 0 0 0 0 0 0 0 0 0 0 0 0 0 0 0.05 0"/>
<feBlend mode="normal" in2="BackgroundImageFix" result="effect1_dropShadow_3229_15517"/>
<feBlend mode="normal" in="SourceGraphic" in2="effect1_dropShadow_3229_15517" result="shape"/>
</filter>
</defs>
</svg>
