<svg width="62" height="40" viewBox="0 0 62 40" fill="none" xmlns="http://www.w3.org/2000/svg">
<rect width="62" height="40" rx="5" fill="#F2F2F2"/>
<path d="M20 10V13" stroke="#BDBDBD" stroke-width="1.5" stroke-miterlimit="10" stroke-linecap="round" stroke-linejoin="round"/>
<path d="M28 10V13" stroke="#BDBDBD" stroke-width="1.5" stroke-miterlimit="10" stroke-linecap="round" stroke-linejoin="round"/>
<path d="M19 21H27" stroke="#BDBDBD" stroke-width="1.5" stroke-miterlimit="10" stroke-linecap="round" stroke-linejoin="round"/>
<path d="M19 25H24" stroke="#BDBDBD" stroke-width="1.5" stroke-miterlimit="10" stroke-linecap="round" stroke-linejoin="round"/>
<path d="M28 11.5C31.33 11.68 33 12.95 33 17.65V23.83C33 27.95 32 30.01 27 30.01H21C16 30.01 15 27.95 15 23.83V17.65C15 12.95 16.67 11.69 20 11.5H28Z" stroke="#BDBDBD" stroke-width="1.5" stroke-miterlimit="10" stroke-linecap="round" stroke-linejoin="round"/>
<path d="M49.8254 20.6512C49.9175 20.5714 49.9175 20.4286 49.8254 20.3488L45.8309 16.8895C45.7014 16.7773 45.5 16.8693 45.5 17.0407L45.5 23.9593C45.5 24.1307 45.7014 24.2227 45.8309 24.1105L49.8254 20.6512Z" fill="#BDBDBD"/>
</svg>
