<svg width="33" height="33" viewBox="0 0 33 33" fill="none" xmlns="http://www.w3.org/2000/svg">
<circle cx="16.5" cy="16.5" r="16.5" fill="#BDBDBD"/>
<path d="M12.4976 24.139H20.5031C22.6114 24.139 23.4517 22.848 23.551 21.2744L23.9483 14.9647C24.0552 13.3147 22.7413 11.9168 21.0837 11.9168C20.6177 11.9168 20.1899 11.6494 19.976 11.2369L19.426 10.1293C19.0746 9.43412 18.158 8.86121 17.3788 8.86121H15.6295C14.8427 8.86121 13.926 9.43412 13.5746 10.1293L13.0246 11.2369C12.8108 11.6494 12.383 11.9168 11.917 11.9168C10.2594 11.9168 8.94548 13.3147 9.05242 14.9647L9.44964 21.2744C9.54131 22.848 10.3892 24.139 12.4976 24.139Z" fill="white"/>
<path d="M15.3543 13.4445H17.646" stroke="#828282" stroke-width="0.611111" stroke-linecap="round" stroke-linejoin="round"/>
<path d="M16.5 21.0833C17.8674 21.0833 18.9827 19.968 18.9827 18.6007C18.9827 17.2333 17.8674 16.118 16.5 16.118C15.1327 16.118 14.0174 17.2333 14.0174 18.6007C14.0174 19.968 15.1327 21.0833 16.5 21.0833Z" stroke="#828282" stroke-width="0.611111" stroke-linecap="round" stroke-linejoin="round"/>
</svg>
