<svg width="33" height="33" viewBox="0 0 33 33" fill="none" xmlns="http://www.w3.org/2000/svg">
<circle cx="16.5" cy="16.5" r="16.5" fill="#F9F9F9"/>
<path d="M12.4976 24.1391H20.5032C22.6115 24.1391 23.4518 22.8481 23.5511 21.2745L23.9483 14.9648C24.0553 13.3148 22.7414 11.9169 21.0837 11.9169C20.6178 11.9169 20.19 11.6495 19.9761 11.237L19.4261 10.1294C19.0747 9.43424 18.158 8.86133 17.3789 8.86133H15.6296C14.8428 8.86133 13.9261 9.43424 13.5747 10.1294L13.0247 11.237C12.8108 11.6495 12.383 11.9169 11.9171 11.9169C10.2594 11.9169 8.94554 13.3148 9.05248 14.9648L9.4497 21.2745C9.54137 22.8481 10.3893 24.1391 12.4976 24.1391Z" fill="#828282"/>
<path d="M15.3545 13.4448H17.6462" stroke="#E0E0E0" stroke-width="0.611111" stroke-linecap="round" stroke-linejoin="round"/>
<path d="M16.5002 21.0834C17.8676 21.0834 18.9829 19.9682 18.9829 18.6008C18.9829 17.2334 17.8676 16.1182 16.5002 16.1182C15.1329 16.1182 14.0176 17.2334 14.0176 18.6008C14.0176 19.9682 15.1329 21.0834 16.5002 21.0834Z" stroke="#E0E0E0" stroke-width="0.611111" stroke-linecap="round" stroke-linejoin="round"/>
</svg>
