<svg width="42" height="42" fill="none" xmlns="http://www.w3.org/2000/svg"><path d="M21 42c11.598 0 21-9.402 21-21S32.598 0 21 0 0 9.402 0 21s9.402 21 21 21Z" fill="#FF481A"/><path d="M15.305 16.028c-.567.082-1.728.293-2.678.737v.014a6.673 6.673 0 0 0-.607 11.364v-6.87c-.007-.718.532-1.353.662-1.482.403-.41 1.339-.909 2.964-.8l6.57.021c.498-.697 1.557-2.226 1.741-3.019h-7.765c.007 0-.683.007-.887.035Zm11.384-3.832a6.603 6.603 0 0 0-2.445-2.383 3.663 3.663 0 0 0-1.612-.458l-.068-.006h-9.923v6.72c.567-.253 1.516-.533 3.019-.615v-3.08h6.836a.738.738 0 0 1 .28.075c1.154.649 1.837 1.83 1.837 3.162 0 .13-.007.26-.02.382l-1.954 3.374-3.817 5.238-.192.287a3.618 3.618 0 0 1-2.383 1.339v3.032a6.629 6.629 0 0 0 4.814-2.568l.041-.048.192-.293 4.022-5.512.8-1.051.006-.007.007-.007c.116-.143.232-.3.334-.45h.007a7.013 7.013 0 0 0 1.127-3.334c.007-.136.014-.266.014-.402a6.549 6.549 0 0 0-.922-3.395Zm4.166 6.68a8.388 8.388 0 0 0-2.91-2.172c-.116.703-.389 1.81-1.072 2.834a5.239 5.239 0 0 1 1.687 1.311 5.261 5.261 0 0 1 1.277 3.428c.007 1.4-.546 2.725-1.557 3.743a5.4 5.4 0 0 1-3.858 1.618h-.697l-8.14-.02.047-10.217c-.109-.006-1.509-.075-2.479.697a1.61 1.61 0 0 0-.594 1.263l.048 11.248 11.145.048h.663a8.39 8.39 0 0 0 5.996-2.506c1.584-1.592 2.445-3.681 2.431-5.887a8.197 8.197 0 0 0-1.987-5.389Z" fill="#fff"/></svg>