<svg width="144" height="38" viewBox="0 0 144 38" fill="none" xmlns="http://www.w3.org/2000/svg">
<path d="M43.3342 26H49.4261C53.5546 26 55.9964 23.7344 55.9964 20.9653C55.9964 19.606 55.367 18.3977 54.2091 17.5669C55.367 16.711 55.9964 15.5027 55.9964 14.1182C55.9964 11.3491 53.5546 9.10869 49.4261 9.10869H43.3342V26ZM46.5564 16.2831V12.1295H49.4261C51.4652 12.1295 52.749 12.9854 52.749 14.1937C52.749 15.402 51.4652 16.2831 49.4261 16.2831H46.5564ZM46.5564 22.9792V18.8508H49.4261C51.4652 18.8508 52.749 19.7067 52.749 20.8898C52.749 22.0981 51.4652 22.9792 49.4261 22.9792H46.5564ZM64.3488 26.2014C67.9486 26.2014 70.8435 23.2813 70.8435 19.7067C70.8435 16.1321 67.9486 13.2119 64.3488 13.2119C60.7742 13.2119 57.8541 16.1321 57.8541 19.7067C57.8541 23.2813 60.7742 26.2014 64.3488 26.2014ZM64.4747 23.1806C62.5615 23.1806 61.2021 21.7205 61.2021 19.7067C61.2021 17.6928 62.5615 16.2327 64.4747 16.2327C66.3627 16.2327 67.7472 17.6928 67.7472 19.7067C67.7472 21.7205 66.3627 23.1806 64.4747 23.1806ZM77.6242 26.2014C80.9219 26.2014 82.7344 24.6155 82.7344 22.375C82.7344 18.1963 75.1824 18.3725 75.1824 17.0383C75.1824 16.409 75.9879 16.0062 77.1963 16.0062C79.3108 16.0062 80.8716 17.5418 80.8716 17.5418L82.9106 15.7041C82.9106 15.7041 80.8464 13.2119 77.2718 13.2119C73.9741 13.2119 72.1868 14.7979 72.1868 17.0383C72.1868 21.2171 79.7136 21.0409 79.7136 22.375C79.7136 23.0044 78.9332 23.4071 77.6997 23.4071C75.5852 23.4071 74.0496 21.8716 74.0496 21.8716L72.0105 23.7092C72.0105 23.7092 74.0748 26.2014 77.6242 26.2014ZM89.9404 26.2014C93.2382 26.2014 95.0506 24.6155 95.0506 22.375C95.0506 18.1963 87.4986 18.3725 87.4986 17.0383C87.4986 16.409 88.3042 16.0062 89.5125 16.0062C91.6271 16.0062 93.1878 17.5418 93.1878 17.5418L95.2268 15.7041C95.2268 15.7041 93.1626 13.2119 89.588 13.2119C86.2903 13.2119 84.503 14.7979 84.503 17.0383C84.503 21.2171 92.0298 21.0409 92.0298 22.375C92.0298 23.0044 91.2495 23.4071 90.016 23.4071C87.9014 23.4071 86.3658 21.8716 86.3658 21.8716L84.3268 23.7092C84.3268 23.7092 86.391 26.2014 89.9404 26.2014ZM104.115 13.2119C102.806 13.2119 101.597 13.5895 100.591 14.2692V7.24587H97.3684V26H100.591V25.1441C101.597 25.8238 102.806 26.2014 104.115 26.2014C107.715 26.2014 110.61 23.2813 110.61 19.7067C110.61 16.1321 107.715 13.2119 104.115 13.2119ZM104.014 23.1806C102.101 23.1806 100.742 21.7205 100.742 19.7067C100.742 17.6928 102.101 16.2327 104.014 16.2327C105.902 16.2327 107.287 17.6928 107.287 19.7067C107.287 21.7205 105.902 23.1806 104.014 23.1806ZM121.069 13.4133V20.336C121.069 22.0226 119.961 23.2309 118.426 23.2309C116.89 23.2309 115.808 22.0478 115.808 20.3612V13.4133H112.51V20.4367C112.51 23.7092 114.599 26.2014 117.696 26.2014C118.954 26.2014 120.163 25.6476 121.069 24.7413V26H124.291V13.4133H121.069ZM132.052 26.2014C135.349 26.2014 137.162 24.6155 137.162 22.375C137.162 18.1963 129.61 18.3725 129.61 17.0383C129.61 16.409 130.415 16.0062 131.624 16.0062C133.738 16.0062 135.299 17.5418 135.299 17.5418L137.338 15.7041C137.338 15.7041 135.274 13.2119 131.699 13.2119C128.402 13.2119 126.614 14.7979 126.614 17.0383C126.614 21.2171 134.141 21.0409 134.141 22.375C134.141 23.0044 133.361 23.4071 132.127 23.4071C130.013 23.4071 128.477 21.8716 128.477 21.8716L126.438 23.7092C126.438 23.7092 128.502 26.2014 132.052 26.2014Z" fill="#0D0D0D"/>
<path d="M17.6 35C27.3202 35 35.2 27.165 35.2 17.5C35.2 7.83502 27.3202 0 17.6 0C7.87979 0 0 7.83502 0 17.5C0 27.165 7.87979 35 17.6 35Z" fill="#FF481A"/>
<path d="M12.8266 13.3564C12.3515 13.4247 11.3785 13.6011 10.5829 13.971V13.9824C8.8029 14.9385 7.65247 16.8052 7.65247 18.871C7.65247 20.7377 8.58541 22.4393 10.0735 23.4523V17.7271C10.0678 17.1296 10.52 16.6003 10.6287 16.4922C10.9664 16.1507 11.7505 15.7352 13.1128 15.8263L18.6188 15.8434C19.0367 15.2629 19.9238 13.9881 20.0783 13.3279H13.5706C13.5764 13.3279 12.9983 13.3336 12.8266 13.3564ZM22.3678 10.1637C21.8756 9.3385 21.1658 8.64988 20.3187 8.17752C19.9124 7.94988 19.443 7.81898 18.968 7.79622L18.9107 7.79053H10.5944V13.3905C11.0694 13.18 11.865 12.9466 13.1242 12.8783V10.3117H18.8535C18.9394 10.3174 19.0195 10.3401 19.0882 10.3743C20.0555 10.9149 20.6278 11.8995 20.6278 13.0092C20.6278 13.1174 20.6221 13.2255 20.6106 13.3279L18.9737 16.1393L15.7742 20.5043L15.614 20.7434C15.116 21.3637 14.4006 21.7621 13.6164 21.8588V24.3857C15.2076 24.2775 16.6614 23.5149 17.6516 22.2458L17.6859 22.206L17.8462 21.9613L21.2173 17.3686L21.887 16.4922C21.887 16.4922 21.887 16.4922 21.8927 16.4865L21.8984 16.4808C21.9957 16.3613 22.093 16.2304 22.1789 16.1052C22.1789 16.1052 22.1789 16.1052 22.1846 16.1052C22.5166 15.61 23.026 14.6539 23.129 13.3279C23.1347 13.2141 23.1405 13.106 23.1405 12.9922C23.1462 11.9905 22.8772 11.0117 22.3678 10.1637ZM25.8592 15.7296C25.1838 14.9499 24.3481 14.3352 23.4209 13.9198C23.3236 14.506 23.0947 15.4279 22.5223 16.2816C23.0603 16.5434 23.5411 16.9133 23.936 17.3743C24.6229 18.1653 25.0064 19.184 25.0064 20.2312C25.0121 21.3978 24.5485 22.5019 23.7014 23.3499C22.8314 24.2206 21.6867 24.6987 20.4676 24.6987H19.8837L13.0612 24.6816L13.1013 16.1678C13.0097 16.1621 11.8364 16.1052 11.0237 16.7483C10.7031 17.0043 10.5257 17.3913 10.5257 17.8011L10.5658 27.1743L19.9066 27.2141H20.4618C22.3563 27.2141 24.1421 26.4743 25.4871 25.1255C26.815 23.7995 27.5362 22.058 27.5247 20.2198C27.5362 18.5694 26.9352 16.9759 25.8592 15.7296Z" fill="white"/>
</svg>
