<svg width="239" height="42" viewBox="0 0 239 42" fill="none" xmlns="http://www.w3.org/2000/svg">
<path d="M54.704 24.528H57.296C59.232 24.528 60.2 23.792 60.2 22.32C60.2 20.816 59.192 20.064 57.176 20.064H54.704V24.528ZM54.704 13.296V17.64H56.528C57.616 17.64 58.432 17.424 58.976 16.992C59.52 16.56 59.792 16.008 59.792 15.336C59.792 14.712 59.56 14.216 59.096 13.848C58.648 13.48 57.96 13.296 57.032 13.296H54.704ZM51.68 10.824H57.416C59.144 10.824 60.488 11.232 61.448 12.048C62.408 12.864 62.888 13.92 62.888 15.216C62.888 16.096 62.648 16.864 62.168 17.52C61.688 18.16 61.072 18.584 60.32 18.792C61.184 19 61.896 19.424 62.456 20.064C63.016 20.688 63.296 21.544 63.296 22.632C63.296 23.912 62.848 24.96 61.952 25.776C61.056 26.592 59.816 27 58.232 27H51.68V10.824ZM71.0911 27.192C69.2511 27.192 67.8111 26.616 66.7711 25.464C65.7471 24.312 65.2351 22.84 65.2351 21.048C65.2351 19.192 65.7711 17.664 66.8431 16.464C67.9151 15.248 69.3311 14.64 71.0911 14.64C72.9631 14.64 74.4111 15.232 75.4351 16.416C76.4591 17.584 76.9711 19.072 76.9711 20.88C76.9711 22.72 76.4511 24.232 75.4111 25.416C74.3871 26.6 72.9471 27.192 71.0911 27.192ZM71.0911 16.992C70.1791 16.992 69.4751 17.368 68.9791 18.12C68.4991 18.872 68.2591 19.816 68.2591 20.952C68.2591 22.072 68.5071 23.008 69.0031 23.76C69.4991 24.512 70.2031 24.888 71.1151 24.888C72.0591 24.888 72.7711 24.52 73.2511 23.784C73.7311 23.048 73.9711 22.112 73.9711 20.976C73.9711 19.808 73.7391 18.856 73.2751 18.12C72.8111 17.368 72.0831 16.992 71.0911 16.992ZM86.8454 15.216V17.76C86.0454 17.28 85.0454 17.04 83.8454 17.04C83.3494 17.04 82.9574 17.152 82.6694 17.376C82.3974 17.584 82.2614 17.856 82.2614 18.192C82.2614 18.32 82.2774 18.44 82.3094 18.552C82.3574 18.664 82.4294 18.776 82.5254 18.888C82.6374 18.984 82.7414 19.072 82.8374 19.152C82.9334 19.232 83.0694 19.32 83.2454 19.416C83.4214 19.496 83.5734 19.568 83.7014 19.632C83.8294 19.696 84.0054 19.776 84.2294 19.872C84.4534 19.968 84.6294 20.048 84.7574 20.112C85.6054 20.528 86.2774 20.992 86.7734 21.504C87.2694 22.016 87.5174 22.68 87.5174 23.496C87.5174 24.632 87.1094 25.52 86.2934 26.16C85.4774 26.8 84.3894 27.12 83.0294 27.12C81.5254 27.12 80.3094 26.872 79.3814 26.376V23.736C80.4534 24.456 81.6134 24.816 82.8614 24.816C83.3894 24.816 83.7974 24.72 84.0854 24.528C84.3894 24.32 84.5414 24.04 84.5414 23.688C84.5414 23.48 84.4934 23.296 84.3974 23.136C84.3014 22.96 84.1174 22.792 83.8454 22.632C83.5734 22.472 83.3574 22.36 83.1974 22.296C83.0534 22.216 82.7574 22.08 82.3094 21.888C82.2614 21.872 82.2214 21.856 82.1894 21.84C82.1734 21.824 82.1414 21.808 82.0934 21.792C82.0454 21.776 82.0054 21.76 81.9734 21.744C80.1974 20.944 79.3094 19.792 79.3094 18.288C79.3094 17.168 79.7334 16.288 80.5814 15.648C81.4294 15.008 82.4934 14.688 83.7734 14.688C85.0054 14.688 86.0294 14.864 86.8454 15.216ZM97.2076 15.216V17.76C96.4076 17.28 95.4076 17.04 94.2076 17.04C93.7116 17.04 93.3196 17.152 93.0316 17.376C92.7596 17.584 92.6236 17.856 92.6236 18.192C92.6236 18.32 92.6396 18.44 92.6716 18.552C92.7196 18.664 92.7916 18.776 92.8876 18.888C92.9996 18.984 93.1036 19.072 93.1996 19.152C93.2956 19.232 93.4316 19.32 93.6076 19.416C93.7836 19.496 93.9356 19.568 94.0636 19.632C94.1916 19.696 94.3676 19.776 94.5916 19.872C94.8156 19.968 94.9916 20.048 95.1196 20.112C95.9676 20.528 96.6396 20.992 97.1356 21.504C97.6316 22.016 97.8796 22.68 97.8796 23.496C97.8796 24.632 97.4716 25.52 96.6556 26.16C95.8396 26.8 94.7516 27.12 93.3916 27.12C91.8876 27.12 90.6716 26.872 89.7436 26.376V23.736C90.8156 24.456 91.9756 24.816 93.2236 24.816C93.7516 24.816 94.1596 24.72 94.4476 24.528C94.7516 24.32 94.9036 24.04 94.9036 23.688C94.9036 23.48 94.8556 23.296 94.7596 23.136C94.6636 22.96 94.4796 22.792 94.2076 22.632C93.9356 22.472 93.7196 22.36 93.5596 22.296C93.4156 22.216 93.1196 22.08 92.6716 21.888C92.6236 21.872 92.5836 21.856 92.5516 21.84C92.5356 21.824 92.5036 21.808 92.4556 21.792C92.4076 21.776 92.3676 21.76 92.3356 21.744C90.5596 20.944 89.6716 19.792 89.6716 18.288C89.6716 17.168 90.0956 16.288 90.9436 15.648C91.7916 15.008 92.8556 14.688 94.1356 14.688C95.3676 14.688 96.3916 14.864 97.2076 15.216ZM106.25 24.696C107.082 24.696 107.778 24.352 108.338 23.664C108.898 22.976 109.178 22.08 109.178 20.976C109.178 19.76 108.89 18.816 108.314 18.144C107.754 17.456 107.058 17.112 106.226 17.112C105.442 17.112 104.746 17.424 104.138 18.048C103.53 18.656 103.226 19.576 103.226 20.808C103.226 22.072 103.514 23.04 104.09 23.712C104.666 24.368 105.386 24.696 106.25 24.696ZM103.226 10.032V16.68C104.074 15.336 105.29 14.664 106.874 14.664C108.394 14.664 109.642 15.232 110.618 16.368C111.61 17.488 112.106 19.008 112.106 20.928C112.106 22.656 111.634 24.128 110.69 25.344C109.762 26.56 108.498 27.168 106.898 27.168C105.298 27.168 104.074 26.488 103.226 25.128V27H100.322V10.032H103.226ZM122.227 14.832H125.131V27H122.227V25.008C121.587 26.416 120.339 27.12 118.483 27.12C117.251 27.12 116.291 26.768 115.603 26.064C114.915 25.36 114.571 24.36 114.571 23.064V14.832H117.451V22.392C117.451 23.16 117.635 23.744 118.003 24.144C118.387 24.544 118.907 24.744 119.563 24.744C120.395 24.744 121.043 24.464 121.507 23.904C121.987 23.344 122.227 22.496 122.227 21.36V14.832ZM135.654 15.216V17.76C134.854 17.28 133.854 17.04 132.654 17.04C132.158 17.04 131.766 17.152 131.478 17.376C131.206 17.584 131.07 17.856 131.07 18.192C131.07 18.32 131.086 18.44 131.118 18.552C131.166 18.664 131.238 18.776 131.334 18.888C131.446 18.984 131.55 19.072 131.646 19.152C131.742 19.232 131.878 19.32 132.054 19.416C132.23 19.496 132.382 19.568 132.51 19.632C132.638 19.696 132.814 19.776 133.038 19.872C133.262 19.968 133.438 20.048 133.566 20.112C134.414 20.528 135.086 20.992 135.582 21.504C136.078 22.016 136.326 22.68 136.326 23.496C136.326 24.632 135.918 25.52 135.102 26.16C134.286 26.8 133.198 27.12 131.838 27.12C130.334 27.12 129.118 26.872 128.19 26.376V23.736C129.262 24.456 130.422 24.816 131.67 24.816C132.198 24.816 132.606 24.72 132.894 24.528C133.198 24.32 133.35 24.04 133.35 23.688C133.35 23.48 133.302 23.296 133.206 23.136C133.11 22.96 132.926 22.792 132.654 22.632C132.382 22.472 132.166 22.36 132.006 22.296C131.862 22.216 131.566 22.08 131.118 21.888C131.07 21.872 131.03 21.856 130.998 21.84C130.982 21.824 130.95 21.808 130.902 21.792C130.854 21.776 130.814 21.76 130.782 21.744C129.006 20.944 128.118 19.792 128.118 18.288C128.118 17.168 128.542 16.288 129.39 15.648C130.238 15.008 131.302 14.688 132.582 14.688C133.814 14.688 134.838 14.864 135.654 15.216ZM147.961 19.056H149.665C150.769 19.056 151.593 18.792 152.137 18.264C152.681 17.736 152.953 17.024 152.953 16.128C152.953 15.248 152.681 14.56 152.137 14.064C151.593 13.552 150.793 13.296 149.737 13.296H147.961V19.056ZM144.937 10.824H150.001C151.825 10.824 153.281 11.32 154.369 12.312C155.473 13.304 156.025 14.576 156.025 16.128C156.025 17.776 155.457 19.088 154.321 20.064C153.201 21.024 151.785 21.504 150.073 21.504H147.961V27H144.937V10.824ZM161.153 14.832V16.992C161.713 15.488 162.737 14.736 164.225 14.736C164.561 14.736 164.833 14.76 165.041 14.808V17.592C164.673 17.432 164.265 17.352 163.817 17.352C163.033 17.352 162.393 17.672 161.897 18.312C161.401 18.952 161.153 19.752 161.153 20.712V27H158.249L158.273 14.832H161.153ZM174.174 19.92V19.56C174.142 18.776 173.926 18.152 173.526 17.688C173.142 17.208 172.574 16.968 171.822 16.968C171.134 16.968 170.534 17.224 170.022 17.736C169.526 18.232 169.206 18.96 169.062 19.92H174.174ZM176.142 23.832V26.328C175.294 26.856 174.07 27.12 172.47 27.12C170.534 27.12 169.006 26.544 167.886 25.392C166.766 24.24 166.206 22.752 166.206 20.928C166.206 18.992 166.734 17.472 167.79 16.368C168.846 15.264 170.166 14.712 171.75 14.712C173.334 14.712 174.59 15.192 175.518 16.152C176.446 17.112 176.91 18.512 176.91 20.352C176.91 20.8 176.854 21.376 176.742 22.08H169.11C169.318 22.96 169.75 23.632 170.406 24.096C171.078 24.56 171.91 24.792 172.902 24.792C174.182 24.792 175.262 24.472 176.142 23.832ZM182.557 14.832V16.752C183.245 15.376 184.389 14.688 185.989 14.688C187.765 14.688 188.917 15.456 189.445 16.992C189.765 16.256 190.245 15.688 190.885 15.288C191.525 14.888 192.253 14.688 193.069 14.688C194.301 14.688 195.253 15.064 195.925 15.816C196.597 16.552 196.933 17.608 196.933 18.984V27H194.029V19.536C194.029 17.904 193.405 17.088 192.157 17.088C191.533 17.088 190.973 17.36 190.477 17.904C189.997 18.448 189.757 19.304 189.757 20.472V27H186.853V19.536C186.853 17.904 186.229 17.088 184.981 17.088C184.357 17.088 183.797 17.36 183.301 17.904C182.805 18.448 182.557 19.304 182.557 20.472V27H179.677V14.832H182.557ZM200.143 27V14.832H203.023V27H200.143ZM199.855 11.184C199.855 10.704 200.023 10.296 200.359 9.96C200.695 9.624 201.103 9.456 201.583 9.456C202.063 9.456 202.471 9.624 202.807 9.96C203.143 10.296 203.311 10.704 203.311 11.184C203.311 11.68 203.143 12.096 202.807 12.432C202.471 12.768 202.063 12.936 201.583 12.936C201.103 12.936 200.695 12.768 200.359 12.432C200.023 12.096 199.855 11.68 199.855 11.184ZM213.914 14.832H216.818V27H213.914V25.008C213.274 26.416 212.026 27.12 210.17 27.12C208.938 27.12 207.978 26.768 207.29 26.064C206.602 25.36 206.258 24.36 206.258 23.064V14.832H209.138V22.392C209.138 23.16 209.322 23.744 209.69 24.144C210.074 24.544 210.594 24.744 211.25 24.744C212.082 24.744 212.73 24.464 213.194 23.904C213.674 23.344 213.914 22.496 213.914 21.36V14.832ZM222.948 14.832V16.752C223.636 15.376 224.78 14.688 226.38 14.688C228.156 14.688 229.308 15.456 229.836 16.992C230.156 16.256 230.636 15.688 231.276 15.288C231.916 14.888 232.644 14.688 233.46 14.688C234.692 14.688 235.644 15.064 236.316 15.816C236.988 16.552 237.324 17.608 237.324 18.984V27H234.42V19.536C234.42 17.904 233.796 17.088 232.548 17.088C231.924 17.088 231.364 17.36 230.868 17.904C230.388 18.448 230.148 19.304 230.148 20.472V27H227.244V19.536C227.244 17.904 226.62 17.088 225.372 17.088C224.748 17.088 224.188 17.36 223.692 17.904C223.196 18.448 222.948 19.304 222.948 20.472V27H220.068V14.832H222.948Z" fill="black"/>
<path d="M21 42C32.598 42 42 32.598 42 21C42 9.40202 32.598 0 21 0C9.40202 0 0 9.40202 0 21C0 32.598 9.40202 42 21 42Z" fill="#FF481A"/>
<path d="M15.3045 16.0274C14.7376 16.1094 13.5766 16.3211 12.6274 16.765V16.7786C10.5035 17.926 9.1308 20.1659 9.1308 22.645C9.1308 24.885 10.244 26.9269 12.0196 28.1425V21.2723C12.0127 20.5552 12.5523 19.9201 12.682 19.7903C13.0849 19.3806 14.0206 18.882 15.6459 18.9913L22.2157 19.0118C22.7142 18.3152 23.7727 16.7855 23.9571 15.9933H16.1923C16.1991 15.9933 15.5093 16.0001 15.3045 16.0274ZM26.6888 12.1962C26.1015 11.206 25.2547 10.3796 24.244 9.81278C23.7591 9.53961 23.1991 9.38254 22.6323 9.35522L22.564 9.34839H12.641V16.0684C13.2079 15.8157 14.1571 15.5357 15.6596 15.4538V12.3738H22.4957C22.5981 12.3806 22.6937 12.4079 22.7757 12.4489C23.9298 13.0977 24.6127 14.2791 24.6127 15.6108C24.6127 15.7406 24.6059 15.8703 24.5923 15.9933L22.6391 19.3669L18.8215 24.605L18.6303 24.8918C18.0362 25.6362 17.1825 26.1142 16.2469 26.2303V29.2625C18.1454 29.1328 19.8801 28.2177 21.0615 26.6947L21.1025 26.6469L21.2937 26.3533L25.3162 20.842L26.1152 19.7903C26.1152 19.7903 26.1152 19.7903 26.122 19.7835L26.1288 19.7767C26.2449 19.6333 26.361 19.4762 26.4635 19.326C26.4635 19.326 26.4635 19.326 26.4703 19.326C26.8664 18.7318 27.4742 17.5845 27.5971 15.9933C27.604 15.8567 27.6108 15.7269 27.6108 15.5903C27.6176 14.3884 27.2966 13.2138 26.6888 12.1962ZM30.8547 18.8752C30.0488 17.9396 29.0518 17.202 27.9454 16.7035C27.8293 17.4069 27.5562 18.5133 26.8732 19.5377C27.5152 19.8518 28.0888 20.2957 28.5601 20.8489C29.3796 21.7981 29.8371 23.0206 29.8371 24.2772C29.844 25.6772 29.2908 27.002 28.2801 28.0196C27.242 29.0645 25.8762 29.6381 24.4215 29.6381H23.7249L15.5845 29.6177L15.6323 19.4011C15.523 19.3942 14.123 19.3259 13.1532 20.0977C12.7708 20.405 12.5591 20.8694 12.5591 21.3611L12.6069 32.6089L23.7523 32.6567H24.4147C26.6752 32.6567 28.8059 31.7689 30.4108 30.1503C31.9952 28.5591 32.8557 26.4694 32.842 24.2635C32.8557 22.283 32.1386 20.3708 30.8547 18.8752Z" fill="white"/>
</svg>
