<svg width="23" height="23" viewBox="0 0 23 23" fill="none" xmlns="http://www.w3.org/2000/svg">
<path d="M1.7361 19.0254L1.25068 18.4537L1.7361 19.0254ZM21.2639 19.0254L21.7493 18.4537L21.2639 19.0254ZM18.625 8.4117C18.625 8.41632 18.625 8.42093 18.625 8.42555C18.625 8.43017 18.625 8.43478 18.625 8.4394C18.625 8.44401 18.625 8.44863 18.625 8.45325C18.625 8.45786 18.625 8.46248 18.625 8.46709C18.625 8.47171 18.625 8.47633 18.625 8.48094C18.625 8.48556 18.625 8.49017 18.625 8.49479C18.625 8.49941 18.625 8.50402 18.625 8.50864C18.625 8.51325 18.625 8.51787 18.625 8.52249C18.625 8.5271 18.625 8.53172 18.625 8.53633C18.625 8.54095 18.625 8.54557 18.625 8.55018C18.625 8.5548 18.625 8.55941 18.625 8.56403C18.625 8.56864 18.625 8.57326 18.625 8.57788C18.625 8.58249 18.625 8.58711 18.625 8.59172C18.625 8.59634 18.625 8.60095 18.625 8.60557C18.625 8.61019 18.625 8.6148 18.625 8.61942C18.625 8.62403 18.625 8.62865 18.625 8.63326C18.625 8.63788 18.625 8.64249 18.625 8.64711C18.625 8.65172 18.625 8.65634 18.625 8.66095C18.625 8.66557 18.625 8.67018 18.625 8.6748C18.625 8.67941 18.625 8.68403 18.625 8.68864C18.625 8.69325 18.625 8.69787 18.625 8.70248C18.625 8.7071 18.625 8.71171 18.625 8.71633C18.625 8.72094 18.625 8.72555 18.625 8.73017C18.625 8.73478 18.625 8.7394 18.625 8.74401C18.625 8.74862 18.625 8.75324 18.625 8.75785C18.625 8.76246 18.625 8.76708 18.625 8.77169C18.625 8.7763 18.625 8.78091 18.625 8.78553C18.625 8.79014 18.625 8.79475 18.625 8.79937C18.625 8.80398 18.625 8.80859 18.625 8.8132C18.625 8.81781 18.625 8.82243 18.625 8.82704C18.625 8.83165 18.625 8.83626 18.625 8.84087C18.625 8.84548 18.625 8.85009 18.625 8.85471C18.625 8.85932 18.625 8.86393 18.625 8.86854C18.625 8.87315 18.625 8.87776 18.625 8.88237C18.625 8.88698 18.625 8.89159 18.625 8.8962C18.625 8.90081 18.625 8.90542 18.625 8.91003C18.625 8.91464 18.625 8.91925 18.625 8.92386C18.625 8.92846 18.625 8.93307 18.625 8.93768C18.625 8.94229 18.625 8.9469 18.625 8.95151C18.625 8.95611 18.625 8.96072 18.625 8.96533C18.625 8.96994 18.625 8.97455 18.625 8.97915C18.625 8.98376 18.625 8.98837 18.625 8.99297C18.625 8.99758 18.625 9.00219 18.625 9.00679C18.625 9.0114 18.625 9.016 18.625 9.02061C18.625 9.02521 18.625 9.02982 18.625 9.03442C18.625 9.03903 18.625 9.04363 18.625 9.04824C18.625 9.05284 18.625 9.05745 18.625 9.06205C18.625 9.06665 18.625 9.07126 18.625 9.07586C18.625 9.08046 18.625 9.08507 18.625 9.08967C18.625 9.09427 18.625 9.09888 18.625 9.10348C18.625 9.10808 18.625 9.11268 18.625 9.11728C18.625 9.12188 18.625 9.12648 18.625 9.13108C18.625 9.13569 18.625 9.14029 18.625 9.14489C18.625 9.14949 18.625 9.15409 18.625 9.15868C18.625 9.16328 18.625 9.16788 18.625 9.17248C18.625 9.17708 18.625 9.18168 18.625 9.18628C18.625 9.19088 18.625 9.19547 18.625 9.20007C18.625 9.20467 18.625 9.20926 18.625 9.21386C18.625 9.21846 18.625 9.22305 18.625 9.22765C18.625 9.23224 18.625 9.23684 18.625 9.24144C18.625 9.24603 18.625 9.25062 18.625 9.25522C18.625 9.25981 18.625 9.26441 18.625 9.269C18.625 9.27359 18.625 9.27819 18.625 9.28278C18.625 9.28737 18.625 9.29196 18.625 9.29656C18.625 9.30115 18.625 9.30574 18.625 9.31033C18.625 9.31492 18.625 9.31951 18.625 9.3241C18.625 9.32869 18.625 9.33328 18.625 9.33787C18.625 9.34246 18.625 9.34705 18.625 9.35164C18.625 9.35623 18.625 9.36081 18.625 9.3654C18.625 9.36999 18.625 9.37458 18.625 9.37916C18.625 9.38375 18.625 9.38834 18.625 9.39292C18.625 9.39751 18.625 9.40209 18.625 9.40668C18.625 9.41126 18.625 9.41585 18.625 9.42043C18.625 9.42501 18.625 9.4296 18.625 9.43418C18.625 9.43876 18.625 9.44335 18.625 9.44793C18.625 9.45251 18.625 9.45709 18.625 9.46167C18.625 9.46625 18.625 9.47083 18.625 9.47541C18.625 9.47999 18.625 9.48457 18.625 9.48915C18.625 9.49373 18.625 9.49831 18.625 9.50289C18.625 9.50746 18.625 9.51204 18.625 9.51662C18.625 9.52119 18.625 9.52577 18.625 9.53035C18.625 9.53492 18.625 9.5395 18.625 9.54407C18.625 9.54865 18.625 9.55322 18.625 9.55779C18.625 9.56237 18.625 9.56694 18.625 9.57151C18.625 9.57609 18.625 9.58066 18.625 9.58523C18.625 9.5898 18.625 9.59437 18.625 9.59894C18.625 9.60351 18.625 9.60808 18.625 9.61265C18.625 9.61722 18.625 9.62179 18.625 9.62636C18.625 9.63093 18.625 9.63549 18.625 9.64006C18.625 9.64463 18.625 9.64919 18.625 9.65376C18.625 9.65832 18.625 9.66289 18.625 9.66745C18.625 9.67202 18.625 9.67658 18.625 9.68114C18.625 9.68571 18.625 9.69027 18.625 9.69483C18.625 9.69939 18.625 9.70396 18.625 9.70852C18.625 9.71308 18.625 9.71764 18.625 9.7222C18.625 9.72676 18.625 9.73131 18.625 9.73587C18.625 9.74043 18.625 9.74499 18.625 9.74955C18.625 9.7541 18.625 9.75866 18.625 9.76322C18.625 9.76777 18.625 9.77233 18.625 9.77688C18.625 9.78143 18.625 9.78599 18.625 9.79054C18.625 9.79509 18.625 9.79965 18.625 9.8042C18.625 9.80875 18.625 9.8133 18.625 9.81785C18.625 9.8224 18.625 9.82695 18.625 9.8315C18.625 9.83605 18.625 9.8406 18.625 9.84515C18.625 9.84969 18.625 9.85424 18.625 9.85879C18.625 9.86333 18.625 9.86788 18.625 9.87242C18.625 9.87697 18.625 9.88151 18.625 9.88605C18.625 9.8906 18.625 9.89514 18.625 9.89968C18.625 9.90422 18.625 9.90877 18.625 9.91331C18.625 9.91785 18.625 9.92239 18.625 9.92692C18.625 9.93146 18.625 9.936 18.625 9.94054C18.625 9.94508 18.625 9.94961 18.625 9.95415C18.625 9.95869 18.625 9.96322 18.625 9.96776C18.625 9.97229 18.625 9.97682 18.625 9.98136C18.625 9.98589 18.625 9.99042 18.625 9.99495C18.625 9.99949 18.625 10.004 18.625 10.0085C18.625 10.0131 18.625 10.0176 18.625 10.0221C18.625 10.0267 18.625 10.0312 18.625 10.0357C18.625 10.0402 18.625 10.0448 18.625 10.0493C18.625 10.0538 18.625 10.0583 18.625 10.0629C18.625 10.0674 18.625 10.0719 18.625 10.0764C18.625 10.081 18.625 10.0855 18.625 10.09C18.625 10.0945 18.625 10.099 18.625 10.1036C18.625 10.1081 18.625 10.1126 18.625 10.1171C18.625 10.1216 18.625 10.1261 18.625 10.1307C18.625 10.1352 18.625 10.1397 18.625 10.1442C18.625 10.1487 18.625 10.1532 18.625 10.1577C18.625 10.1623 18.625 10.1668 18.625 10.1713C18.625 10.1758 18.625 10.1803 18.625 10.1848C18.625 10.1893 18.625 10.1938 18.625 10.1983C18.625 10.2028 18.625 10.2073 18.625 10.2118C18.625 10.2164 18.625 10.2209 18.625 10.2254C18.625 10.2299 18.625 10.2344 18.625 10.2389C18.625 10.2434 18.625 10.2479 18.625 10.2524C18.625 10.2569 18.625 10.2614 18.625 10.2659C18.625 10.2704 18.625 10.2749 18.625 10.2794C18.625 10.2838 18.625 10.2883 18.625 10.2928C18.625 10.2973 18.625 10.3018 18.625 10.3063C18.625 10.3108 18.625 10.3153 18.625 10.3198C18.625 10.3243 18.625 10.3288 18.625 10.3333C18.625 10.3378 18.625 10.3422 18.625 10.3467C18.625 10.3512 18.625 10.3557 18.625 10.3602C18.625 10.3647 18.625 10.3692 18.625 10.3736C18.625 10.3781 18.625 10.3826 18.625 10.3871C18.625 10.3916 18.625 10.396 18.625 10.4005C18.625 10.405 18.625 10.4095 18.625 10.414C18.625 10.4184 18.625 10.4229 18.625 10.4274C18.625 10.4319 18.625 10.4363 18.625 10.4408C18.625 10.4453 18.625 10.4497 18.625 10.4542C18.625 10.4587 18.625 10.4632 18.625 10.4676C18.625 10.4721 18.625 10.4766 18.625 10.481C18.625 10.4855 18.625 10.49 18.625 10.4944C18.625 10.4989 18.625 10.5034 18.625 10.5078C18.625 10.5123 18.625 10.5167 18.625 10.5212C18.625 10.5257 18.625 10.5301 18.625 10.5346C18.625 10.539 18.625 10.5435 18.625 10.548C18.625 10.5524 18.625 10.5569 18.625 10.5613C18.625 10.5658 18.625 10.5702 18.625 10.5747C18.625 10.5791 18.625 10.5836 18.625 10.588C18.625 10.5925 18.625 10.5969 18.625 10.6014C18.625 10.6058 18.625 10.6103 18.625 10.6147C18.625 10.6192 18.625 10.6236 18.625 10.6281C18.625 10.6325 18.625 10.6369 18.625 10.6414C18.625 10.6458 18.625 10.6503 18.625 10.6547C18.625 10.6591 18.625 10.6636 18.625 10.668C18.625 10.6725 18.625 10.6769 18.625 10.6813C18.625 10.6858 18.625 10.6902 18.625 10.6946C18.625 10.6991 18.625 10.7035 18.625 10.7079C18.625 10.7124 18.625 10.7168 18.625 10.7212C18.625 10.7256 18.625 10.7301 18.625 10.7345C18.625 10.7389 18.625 10.7433 18.625 10.7478C18.625 10.7522 18.625 10.7566 18.625 10.761C18.625 10.7654 18.625 10.7699 18.625 10.7743C18.625 10.7787 18.625 10.7831 18.625 10.7875C18.625 10.792 18.625 10.7964 18.625 10.8008C18.625 10.8052 18.625 10.8096 18.625 10.814C18.625 10.8184 18.625 10.8228 18.625 10.8273C18.625 10.8317 18.625 10.8361 18.625 10.8405C18.625 10.8449 18.625 10.8493 18.625 10.8537C18.625 10.8581 18.625 10.8625 18.625 10.8669C18.625 10.8713 18.625 10.8757 18.625 10.8801C18.625 10.8845 18.625 10.8889 18.625 10.8933C18.625 10.8977 18.625 10.9021 18.625 10.9065C18.625 10.9109 18.625 10.9153 18.625 10.9197C18.625 10.9241 18.625 10.9284 18.625 10.9328C18.625 10.9372 18.625 10.9416 18.625 10.946C18.625 10.9504 18.625 10.9548 18.625 10.9592C18.625 10.9635 18.625 10.9679 18.625 10.9723C18.625 10.9767 18.625 10.9811 18.625 10.9854C18.625 10.9898 18.625 10.9942 18.625 10.9986C18.625 11.003 18.625 11.0073 18.625 11.0117C18.625 11.0161 18.625 11.0204 18.625 11.0248C18.625 11.0292 18.625 11.0336 18.625 11.0379C18.625 11.0423 18.625 11.0467 18.625 11.051C18.625 11.0554 18.625 11.0598 18.625 11.0641C18.625 11.0685 18.625 11.0728 18.625 11.0772C18.625 11.0816 18.625 11.0859 18.625 11.0903C18.625 11.0946 18.625 11.099 18.625 11.1034C18.625 11.1077 18.625 11.1121 18.625 11.1164C18.625 11.1208 18.625 11.1251 18.625 11.1295C18.625 11.1338 18.625 11.1382 18.625 11.1425C18.625 11.1469 18.625 11.1512 18.625 11.1556C18.625 11.1599 18.625 11.1642 18.625 11.1686C18.625 11.1729 18.625 11.1773 18.625 11.1816C18.625 11.1859 18.625 11.1903 18.625 11.1946C18.625 11.1989 18.625 11.2033 18.625 11.2076C18.625 11.212 18.625 11.2163 18.625 11.2206C18.625 11.2249 18.625 11.2293 18.625 11.2336C18.625 11.2379 18.625 11.2423 18.625 11.2466C18.625 11.2509 18.625 11.2552 18.625 11.2595C18.625 11.2639 18.625 11.2682 18.625 11.2725C18.625 11.2768 18.625 11.2811 18.625 11.2855C18.625 11.2898 18.625 11.2941 18.625 11.2984C18.625 11.3027 18.625 11.307 18.625 11.3113C18.625 11.3156 18.625 11.32 18.625 11.3243C18.625 11.3286 18.625 11.3329 18.625 11.3372C18.625 11.3415 18.625 11.3458 18.625 11.3501C18.625 11.3544 18.625 11.3587 18.625 11.363C18.625 11.3673 18.625 11.3716 18.625 11.3759C18.625 11.3802 18.625 11.3845 18.625 11.3888C18.625 11.3931 18.625 11.3973 18.625 11.4016C18.625 11.4059 18.625 11.4102 18.625 11.4145C18.625 11.4188 18.625 11.4231 18.625 11.4273C18.625 11.4316 18.625 11.4359 18.625 11.4402C18.625 11.4445 18.625 11.4488 18.625 11.453C18.625 11.4573 18.625 11.4616 18.625 11.4659C18.625 11.4701 18.625 11.4744 18.625 11.4787C18.625 11.4829 18.625 11.4872 18.625 11.4915C18.625 11.4957 18.625 11.5 18.625 11.5043C18.625 11.5085 18.625 11.5128 18.625 11.5171C18.625 11.5213 18.625 11.5256 18.625 11.5298C18.625 11.5341 18.625 11.5384 18.625 11.5426C18.625 11.5469 18.625 11.5511 18.625 11.5554C18.625 11.5596 18.625 11.5639 18.625 11.5681C18.625 11.5724 18.625 11.5766 18.625 11.5809C18.625 11.5851 18.625 11.5894 18.625 11.5936C18.625 11.5978 18.625 11.6021 18.625 11.6063C18.625 11.6106 18.625 11.6148 18.625 11.619C18.625 11.6233 18.625 11.6275 18.625 11.6317C18.625 11.636 18.625 11.6402 18.625 11.6444C18.625 11.6487 18.625 11.6529 18.625 11.6571C18.625 11.6613 18.625 11.6656 18.625 11.6698C18.625 11.674 18.625 11.6782 18.625 11.6824C18.625 11.6867 18.625 11.6909 18.625 11.6951C18.625 11.6993 18.625 11.7035 18.625 11.7077C18.625 11.712 18.625 11.7162 18.625 11.7204C18.625 11.7246 18.625 11.7288 18.625 11.733C18.625 11.7372 18.625 11.7414 18.625 11.7456C18.625 11.7498 18.625 11.754 18.625 11.7582C18.625 11.7624 18.625 11.7666 18.625 11.7708C18.625 11.775 18.625 11.7792 18.625 11.7834C18.625 11.7876 18.625 11.7918 18.625 11.796C18.625 11.8001 18.625 11.8043 18.625 11.8085C18.625 11.8127 18.625 11.8169 18.625 11.8211C18.625 11.8252 18.625 11.8294 18.625 11.8336C18.625 11.8378 18.625 11.842 18.625 11.8461C18.625 11.8503 18.625 11.8545 18.625 11.8587C18.625 11.8628 18.625 11.867 18.625 11.8712C18.625 11.8753 18.625 11.8795 18.625 11.8837C18.625 11.8878 18.625 11.892 18.625 11.8961C18.625 11.9003 18.625 11.9045 18.625 11.9086C18.625 11.9128 18.625 11.9169 18.625 11.9211C18.625 11.9252 18.625 11.9294 18.625 11.9335C18.625 11.9377 18.625 11.9418 18.625 11.946C18.625 11.9501 18.625 11.9543 18.625 11.9584C18.625 11.9626 18.625 11.9667 18.625 11.9708C18.625 11.975 18.625 11.9791 18.625 11.9832C18.625 11.9874 18.625 11.9915 18.625 11.9956C18.625 11.9998 18.625 12.0039 18.625 12.008C18.625 12.0122 18.625 12.0163 18.625 12.0204C18.625 12.0245 18.625 12.0287 18.625 12.0328C18.625 12.0369 18.625 12.041 18.625 12.0451C18.625 12.0492 18.625 12.0534 18.625 12.0575C18.625 12.0616 18.625 12.0657 18.625 12.0698C18.625 12.0739 18.625 12.078 18.625 12.0821C18.625 12.0862 18.625 12.0903 18.625 12.0944C18.625 12.0985 18.625 12.1026 18.625 12.1067C18.625 12.1108 18.625 12.1149 18.625 12.119C18.625 12.1231 18.625 12.1272 18.625 12.1313C18.625 12.1354 18.625 12.1395 18.625 12.1436C18.625 12.1476 18.625 12.1517 18.625 12.1558C18.625 12.1599 18.625 12.164 18.625 12.1681C18.625 12.1721 18.625 12.1762 18.625 12.1803C18.625 12.1844 18.625 12.1884 18.625 12.1925C18.625 12.1966 18.625 12.2006 18.625 12.2047C18.625 12.2088 18.625 12.2128 18.625 12.2169C18.625 12.221 18.625 12.225 18.625 12.2291C18.625 12.2331 18.625 12.2372 18.625 12.2413C18.625 12.2453 18.625 12.2494 18.625 12.2534C18.625 12.2575 18.625 12.2615 18.625 12.2656C18.625 12.2696 18.625 12.2737 18.625 12.2777C18.625 12.2817 18.625 12.2858 18.625 12.2898C18.625 12.2939 18.625 12.2979 18.625 12.3019C18.625 12.306 18.625 12.31 18.625 12.314C18.625 12.3181 18.625 12.3221 18.625 12.3261C18.625 12.3301 18.625 12.3342 18.625 12.3382C18.625 12.3422 18.625 12.3462 18.625 12.3502C18.625 12.3543 18.625 12.3583 18.625 12.3623C18.625 12.3663 18.625 12.3703 18.625 12.3743C18.625 12.3783 18.625 12.3823 18.625 12.3864C18.625 12.3904 18.625 12.3944 18.625 12.3984C18.625 12.4024 18.625 12.4064 18.625 12.4104C18.625 12.4144 18.625 12.4184 18.625 12.4224C18.625 12.4263 18.625 12.4303 18.625 12.4343C18.625 12.4383 18.625 12.4423 18.625 12.4463C18.625 12.4503 18.625 12.4543 18.625 12.4582C18.625 12.4622 18.625 12.4662 18.625 12.4702C18.625 12.4742 18.625 12.4781 18.625 12.4821C18.625 12.4861 18.625 12.49 18.625 12.494C18.625 12.498 18.625 12.5019 18.625 12.5059C18.625 12.5099 18.625 12.5138 18.625 12.5178C18.625 12.5218 18.625 12.5257 18.625 12.5297C18.625 12.5336 18.625 12.5376 18.625 12.5415C18.625 12.5455 18.625 12.5494 18.625 12.5534C18.625 12.5573 18.625 12.5613 18.625 12.5652C18.625 12.5691 18.625 12.5731 18.625 12.577C18.625 12.581 18.625 12.5849 18.625 12.5888C18.625 12.5928 18.625 12.5967 18.625 12.6006C18.625 12.6046 18.625 12.6085 18.625 12.6124C18.625 12.6163 18.625 12.6203 18.625 12.6242C18.625 12.6281 18.625 12.632 18.625 12.6359C18.625 12.6398 18.625 12.6438 18.625 12.6477C18.625 12.6516 18.625 12.6555 18.625 12.6594C18.625 12.6633 18.625 12.6672 18.625 12.6711C18.625 12.675 18.625 12.6789 18.625 12.6828C18.625 12.6867 18.625 12.6906 18.625 12.6945C18.625 12.6984 18.625 12.7023 18.625 12.7062C18.625 12.7101 18.625 12.714 18.625 12.7178C18.625 12.7217 18.625 12.7256 18.625 12.7295C18.625 12.7334 18.625 12.7372 18.625 12.7411C18.625 12.745 18.625 12.7489 18.625 12.7527C18.625 12.7566 18.625 12.7605 18.625 12.7643C18.625 12.7682 18.625 12.7721 18.625 12.7759C18.625 12.7798 18.625 12.7837 18.625 12.7875C18.625 12.7914 18.625 12.7952 18.625 12.7991C18.625 12.8029 18.625 12.8068 18.625 12.8106C18.625 12.8145 18.625 12.8183 18.625 12.8222C18.625 12.826 18.625 12.8299 18.625 12.8337C18.625 12.8375 18.625 12.8414 18.625 12.8452C18.625 12.849 18.625 12.8529 18.625 12.8567C18.625 12.8605 18.625 12.8644 18.625 12.8682C18.625 12.872 18.625 12.8758 18.625 12.8796C18.625 12.8835 18.625 12.8873 18.625 12.8911C18.625 12.8949 18.625 12.8987 18.625 12.9025C18.625 12.9063 18.625 12.9102 18.625 12.914C18.625 12.9178 18.625 12.9216 18.625 12.9254C18.625 12.9292 18.625 12.933 18.625 12.9368C18.625 12.9406 18.625 12.9444 18.625 12.9481C18.625 12.9519 18.625 12.9557 18.625 12.9595C18.625 12.9633 18.625 12.9671 18.625 12.9709C18.625 12.9746 18.625 12.9784 18.625 12.9822C18.625 12.986 18.625 12.9898 18.625 12.9935C18.625 12.9973 18.625 13.0011 18.625 13.0048C18.625 13.0086 18.625 13.0124 18.625 13.0161C18.625 13.0199 18.625 13.0236 18.625 13.0274C18.625 13.0312 18.625 13.0349 18.625 13.0387C18.625 13.0424 18.625 13.0462 18.625 13.0499C18.625 13.0537 18.625 13.0574 18.625 13.0612C18.625 13.0649 18.625 13.0686 18.625 13.0724C18.625 13.0761 18.625 13.0798 18.625 13.0836C18.625 13.0873 18.625 13.091 18.625 13.0948C18.625 13.0985 18.625 13.1022 18.625 13.1059C18.625 13.1097 18.625 13.1134 18.625 13.1171C18.625 13.1208 18.625 13.1245 18.625 13.1282C18.625 13.132 18.625 13.1357 18.625 13.1394C18.625 13.1431 18.625 13.1468 18.625 13.1505C18.625 13.1542 18.625 13.1579 18.625 13.1616C18.625 13.1653 18.625 13.169 18.625 13.1727C18.625 13.1764 18.625 13.1801 18.625 13.1837C18.625 13.1874 18.625 13.1911 18.625 13.1948C18.625 13.1985 18.625 13.2022 18.625 13.2058C18.625 13.2095 18.625 13.2132 18.625 13.2169C18.625 13.2205 18.625 13.2242 18.625 13.2279C18.625 13.2315 18.625 13.2352 18.625 13.2389C18.625 13.2425 18.625 13.2462 18.625 13.2498C18.625 13.2535 18.625 13.2571 18.625 13.2608C18.625 13.2644 18.625 13.2681 18.625 13.2717C18.625 13.2754 18.625 13.279 18.625 13.2827C18.625 13.2863 18.625 13.2899 18.625 13.2936C18.625 13.2972 18.625 13.3008 18.625 13.3045C18.625 13.3081 18.625 13.3117 18.625 13.3154C18.625 13.319 18.625 13.3226 18.625 13.3262C18.625 13.3298 18.625 13.3335 18.625 13.3371C18.625 13.3407 18.625 13.3443 18.625 13.3479C18.625 13.3515 18.625 13.3551 18.625 13.3587C18.625 13.3623 18.625 13.3659 18.625 13.3695C18.625 13.3731 18.625 13.3767 18.625 13.3803C18.625 13.3839 18.625 13.3875 18.625 13.3911C18.625 13.3947 18.625 13.3983 18.625 13.4018C18.625 13.4054 18.625 13.409 18.625 13.4126C18.625 13.4162 18.625 13.4197 18.625 13.4233C18.625 13.4269 18.625 13.4304 18.625 13.434C18.625 13.4376 18.625 13.4411 18.625 13.4447C18.625 13.4483 18.625 13.4518 18.625 13.4554C18.625 13.4589 18.625 13.4625 18.625 13.466C18.625 13.4696 18.625 13.4731 18.625 13.4767C18.625 13.4802 18.625 13.4837 18.625 13.4873C18.625 13.4908 18.625 13.4944 18.625 13.4979C18.625 13.5014 18.625 13.505 18.625 13.5085C18.625 13.512 18.625 13.5155 18.625 13.5191C18.625 13.5226 18.625 13.5261 18.625 13.5296C18.625 13.5331 18.625 13.5366 18.625 13.5402C18.625 13.5437 18.625 13.5472 18.625 13.5507C18.625 13.5542 18.625 13.5577 18.625 13.5612C18.625 13.5647 18.625 13.5682 18.625 13.5717C18.625 13.5752 18.625 13.5787 18.625 13.5822C18.625 13.5856 18.625 13.5891 18.625 13.5926C18.625 13.5961 18.625 13.5996 18.625 13.603C18.625 13.6065 18.625 13.61 18.625 13.6135C18.625 13.6169 18.625 13.6204 18.625 13.6239C18.625 13.6273 18.625 13.6308 18.625 13.6343C18.625 13.6377 18.625 13.6412 18.625 13.6446C18.625 13.6481 18.625 13.6515 18.625 13.655C18.625 13.6584 18.625 13.6619 18.625 13.6653C18.625 13.6688 18.625 13.6722 18.625 13.6756C18.625 13.6791 18.625 13.6825 18.625 13.686C18.625 13.6894 18.625 13.6928 18.625 13.6962C18.625 13.6997 18.625 13.7031 18.625 13.7065C18.625 13.7099 18.625 13.7133 18.625 13.7168C18.625 13.7202 18.625 13.7236 18.625 13.727C18.625 13.7304 18.625 13.7338 18.625 13.7372C18.625 13.7406 18.625 13.744 18.625 13.7474C18.625 13.7508 18.625 13.7542 18.625 13.7576C18.625 13.761 18.625 13.7644 18.625 13.7677C18.625 13.7711 18.625 13.7745 18.625 13.7779C18.625 13.7813 18.625 13.7846 18.625 13.788C18.625 13.7914 18.625 13.7948 18.625 13.7981C18.625 13.8015 18.625 13.8049 18.625 13.8082C18.625 13.8116 18.625 13.8149 18.625 13.8183C18.625 13.8217 18.625 13.825 18.625 13.8284C18.625 13.8317 18.625 13.8351 18.625 13.8384C18.625 13.8417 18.625 13.8451 18.625 13.8484C18.625 13.8518 18.625 13.8551 18.625 13.8584C18.625 13.8617 18.625 13.8651 18.625 13.8684C18.625 13.8717 18.625 13.875 18.625 13.8784C18.625 13.8817 18.625 13.885 18.625 13.8883C18.625 13.8916 18.625 13.8949 18.625 13.8982C18.625 13.9016 18.625 13.9049 18.625 13.9082C18.625 13.9115 18.625 13.9148 18.625 13.9181C18.625 13.9214 18.625 13.9246 18.625 13.9279C18.625 13.9312 18.625 13.9345 18.625 13.9378C18.625 13.9411 18.625 13.9444 18.625 13.9476C18.625 13.9509 18.625 13.9542 18.625 13.9574C18.625 13.9607 18.625 13.964 18.625 13.9673C18.625 13.9705 18.625 13.9738 18.625 13.977C18.625 13.9803 18.625 13.9835 18.625 13.9868C18.625 13.9901 18.625 13.9933 18.625 13.9965C18.625 13.9998 18.625 14.003 18.625 14.0063C18.625 14.0095 18.625 14.0128 18.625 14.016C18.625 14.0192 18.625 14.0224 18.625 14.0257C18.625 14.0289 18.625 14.0321 18.625 14.0353C18.625 14.0386 18.625 14.0418 18.625 14.045C18.625 14.0482 18.625 14.0514 18.625 14.0546C18.625 14.0578 18.625 14.061 18.625 14.0643C18.625 14.0675 18.625 14.0707 18.625 14.0738C18.625 14.077 18.625 14.0802 18.625 14.0834C18.625 14.0866 18.625 14.0898 18.625 14.093C18.625 14.0962 18.625 14.0993 18.625 14.1025C18.625 14.1057 18.625 14.1089 18.625 14.112C18.625 14.1152 18.625 14.1184 18.625 14.1215C18.625 14.1247 18.625 14.1279 18.625 14.131C18.625 14.1342 18.625 14.1373 18.625 14.1405C18.625 14.1436 18.625 14.1468 18.625 14.1499C18.625 14.1531 18.625 14.1562 18.625 14.1594C18.625 14.1625 18.625 14.1656 18.625 14.1688C18.625 14.1719 18.625 14.175 18.625 14.1782C18.625 14.1813 18.625 14.1844 18.625 14.1875C18.625 14.1906 18.625 14.1938 18.625 14.1969C18.625 14.2 18.625 14.2031 18.625 14.2062C18.625 14.2093 18.625 14.2124 18.625 14.2155C18.625 14.2186 18.625 14.2217 18.625 14.2248C18.625 14.2279 18.625 14.231 18.625 14.2341C18.625 14.2371 18.625 14.2402 18.625 14.2433C18.625 14.2464 18.625 14.2495 18.625 14.2525C18.625 14.2556 18.625 14.2587 18.625 14.2617C18.625 14.2648 18.625 14.2679 18.625 14.2709C18.625 14.274 18.625 14.2771 18.625 14.2801C18.625 14.2832 18.625 14.2862 18.625 14.2893C18.625 14.2923 18.625 14.2953 18.625 14.2984C18.625 14.3014 18.625 14.3045 18.625 14.3075C18.625 14.3105 18.625 14.3136 18.625 14.3166C18.625 14.3196 18.625 14.3226 18.625 14.3257C18.625 14.3287 18.625 14.3317 18.625 14.3347C18.625 14.3377 18.625 14.3407 18.625 14.3437C18.625 14.3467 18.625 14.3497 18.625 14.3527C18.625 14.3557 18.625 14.3587 18.625 14.3617C18.625 14.3647 18.625 14.3677 18.625 14.3707C18.625 14.3737 18.625 14.3767 18.625 14.3797C18.625 14.3826 18.625 14.3856 18.625 14.3886C18.625 14.3916 18.625 14.3945 18.625 14.3975C18.625 14.4005 18.625 14.4034 18.625 14.4064C18.625 14.4093 18.625 14.4123 18.625 14.4152C18.625 14.4182 18.625 14.4211 18.625 14.4241C18.625 14.427 18.625 14.43 18.625 14.4329C18.625 14.4359 18.625 14.4388 18.625 14.4417C18.625 14.4447 18.625 14.4476 18.625 14.4505C18.625 14.4534 18.625 14.4564 18.625 14.4593C18.625 14.4622 18.625 14.4651 18.625 14.468C18.625 14.4709 18.625 14.4738 18.625 14.4767C18.625 14.4796 18.625 14.4825 18.625 14.4854C18.625 14.4883 18.625 14.4912 18.625 14.4941C18.625 14.497 18.625 14.4999 18.625 14.5028C18.625 14.5057 18.625 14.5086 18.625 14.5114C18.625 14.5143 18.625 14.5172 18.625 14.52C18.625 14.5229 18.625 14.5258 18.625 14.5286C18.625 14.5315 18.625 14.5344 18.625 14.5372C18.625 14.5401 18.625 14.5429 18.625 14.5458C18.625 14.5486 18.625 14.5515 18.625 14.5543C18.625 14.5572 18.625 14.56 18.625 14.5628C18.625 14.5657 18.625 14.5685 18.625 14.5713C18.625 14.5741 18.625 14.577 18.625 14.5798C18.625 14.5826 18.625 14.5854 18.625 14.5882H20.125C20.125 14.5854 20.125 14.5826 20.125 14.5798C20.125 14.577 20.125 14.5741 20.125 14.5713C20.125 14.5685 20.125 14.5657 20.125 14.5628C20.125 14.56 20.125 14.5572 20.125 14.5543C20.125 14.5515 20.125 14.5486 20.125 14.5458C20.125 14.5429 20.125 14.5401 20.125 14.5372C20.125 14.5344 20.125 14.5315 20.125 14.5286C20.125 14.5258 20.125 14.5229 20.125 14.52C20.125 14.5172 20.125 14.5143 20.125 14.5114C20.125 14.5086 20.125 14.5057 20.125 14.5028C20.125 14.4999 20.125 14.497 20.125 14.4941C20.125 14.4912 20.125 14.4883 20.125 14.4854C20.125 14.4825 20.125 14.4796 20.125 14.4767C20.125 14.4738 20.125 14.4709 20.125 14.468C20.125 14.4651 20.125 14.4622 20.125 14.4593C20.125 14.4564 20.125 14.4534 20.125 14.4505C20.125 14.4476 20.125 14.4447 20.125 14.4417C20.125 14.4388 20.125 14.4359 20.125 14.4329C20.125 14.43 20.125 14.427 20.125 14.4241C20.125 14.4211 20.125 14.4182 20.125 14.4152C20.125 14.4123 20.125 14.4093 20.125 14.4064C20.125 14.4034 20.125 14.4005 20.125 14.3975C20.125 14.3945 20.125 14.3916 20.125 14.3886C20.125 14.3856 20.125 14.3826 20.125 14.3797C20.125 14.3767 20.125 14.3737 20.125 14.3707C20.125 14.3677 20.125 14.3647 20.125 14.3617C20.125 14.3587 20.125 14.3557 20.125 14.3527C20.125 14.3497 20.125 14.3467 20.125 14.3437C20.125 14.3407 20.125 14.3377 20.125 14.3347C20.125 14.3317 20.125 14.3287 20.125 14.3257C20.125 14.3226 20.125 14.3196 20.125 14.3166C20.125 14.3136 20.125 14.3105 20.125 14.3075C20.125 14.3045 20.125 14.3014 20.125 14.2984C20.125 14.2953 20.125 14.2923 20.125 14.2893C20.125 14.2862 20.125 14.2832 20.125 14.2801C20.125 14.2771 20.125 14.274 20.125 14.2709C20.125 14.2679 20.125 14.2648 20.125 14.2617C20.125 14.2587 20.125 14.2556 20.125 14.2525C20.125 14.2495 20.125 14.2464 20.125 14.2433C20.125 14.2402 20.125 14.2371 20.125 14.2341C20.125 14.231 20.125 14.2279 20.125 14.2248C20.125 14.2217 20.125 14.2186 20.125 14.2155C20.125 14.2124 20.125 14.2093 20.125 14.2062C20.125 14.2031 20.125 14.2 20.125 14.1969C20.125 14.1938 20.125 14.1906 20.125 14.1875C20.125 14.1844 20.125 14.1813 20.125 14.1782C20.125 14.175 20.125 14.1719 20.125 14.1688C20.125 14.1656 20.125 14.1625 20.125 14.1594C20.125 14.1562 20.125 14.1531 20.125 14.1499C20.125 14.1468 20.125 14.1436 20.125 14.1405C20.125 14.1373 20.125 14.1342 20.125 14.131C20.125 14.1279 20.125 14.1247 20.125 14.1215C20.125 14.1184 20.125 14.1152 20.125 14.112C20.125 14.1089 20.125 14.1057 20.125 14.1025C20.125 14.0993 20.125 14.0962 20.125 14.093C20.125 14.0898 20.125 14.0866 20.125 14.0834C20.125 14.0802 20.125 14.077 20.125 14.0738C20.125 14.0707 20.125 14.0675 20.125 14.0643C20.125 14.061 20.125 14.0578 20.125 14.0546C20.125 14.0514 20.125 14.0482 20.125 14.045C20.125 14.0418 20.125 14.0386 20.125 14.0353C20.125 14.0321 20.125 14.0289 20.125 14.0257C20.125 14.0224 20.125 14.0192 20.125 14.016C20.125 14.0128 20.125 14.0095 20.125 14.0063C20.125 14.003 20.125 13.9998 20.125 13.9965C20.125 13.9933 20.125 13.9901 20.125 13.9868C20.125 13.9835 20.125 13.9803 20.125 13.977C20.125 13.9738 20.125 13.9705 20.125 13.9673C20.125 13.964 20.125 13.9607 20.125 13.9574C20.125 13.9542 20.125 13.9509 20.125 13.9476C20.125 13.9444 20.125 13.9411 20.125 13.9378C20.125 13.9345 20.125 13.9312 20.125 13.9279C20.125 13.9246 20.125 13.9214 20.125 13.9181C20.125 13.9148 20.125 13.9115 20.125 13.9082C20.125 13.9049 20.125 13.9016 20.125 13.8982C20.125 13.8949 20.125 13.8916 20.125 13.8883C20.125 13.885 20.125 13.8817 20.125 13.8784C20.125 13.875 20.125 13.8717 20.125 13.8684C20.125 13.8651 20.125 13.8617 20.125 13.8584C20.125 13.8551 20.125 13.8518 20.125 13.8484C20.125 13.8451 20.125 13.8417 20.125 13.8384C20.125 13.8351 20.125 13.8317 20.125 13.8284C20.125 13.825 20.125 13.8217 20.125 13.8183C20.125 13.8149 20.125 13.8116 20.125 13.8082C20.125 13.8049 20.125 13.8015 20.125 13.7981C20.125 13.7948 20.125 13.7914 20.125 13.788C20.125 13.7846 20.125 13.7813 20.125 13.7779C20.125 13.7745 20.125 13.7711 20.125 13.7677C20.125 13.7644 20.125 13.761 20.125 13.7576C20.125 13.7542 20.125 13.7508 20.125 13.7474C20.125 13.744 20.125 13.7406 20.125 13.7372C20.125 13.7338 20.125 13.7304 20.125 13.727C20.125 13.7236 20.125 13.7202 20.125 13.7168C20.125 13.7133 20.125 13.7099 20.125 13.7065C20.125 13.7031 20.125 13.6997 20.125 13.6962C20.125 13.6928 20.125 13.6894 20.125 13.686C20.125 13.6825 20.125 13.6791 20.125 13.6756C20.125 13.6722 20.125 13.6688 20.125 13.6653C20.125 13.6619 20.125 13.6584 20.125 13.655C20.125 13.6515 20.125 13.6481 20.125 13.6446C20.125 13.6412 20.125 13.6377 20.125 13.6343C20.125 13.6308 20.125 13.6273 20.125 13.6239C20.125 13.6204 20.125 13.6169 20.125 13.6135C20.125 13.61 20.125 13.6065 20.125 13.603C20.125 13.5996 20.125 13.5961 20.125 13.5926C20.125 13.5891 20.125 13.5856 20.125 13.5822C20.125 13.5787 20.125 13.5752 20.125 13.5717C20.125 13.5682 20.125 13.5647 20.125 13.5612C20.125 13.5577 20.125 13.5542 20.125 13.5507C20.125 13.5472 20.125 13.5437 20.125 13.5402C20.125 13.5366 20.125 13.5331 20.125 13.5296C20.125 13.5261 20.125 13.5226 20.125 13.5191C20.125 13.5155 20.125 13.512 20.125 13.5085C20.125 13.505 20.125 13.5014 20.125 13.4979C20.125 13.4944 20.125 13.4908 20.125 13.4873C20.125 13.4837 20.125 13.4802 20.125 13.4767C20.125 13.4731 20.125 13.4696 20.125 13.466C20.125 13.4625 20.125 13.4589 20.125 13.4554C20.125 13.4518 20.125 13.4483 20.125 13.4447C20.125 13.4411 20.125 13.4376 20.125 13.434C20.125 13.4304 20.125 13.4269 20.125 13.4233C20.125 13.4197 20.125 13.4162 20.125 13.4126C20.125 13.409 20.125 13.4054 20.125 13.4018C20.125 13.3983 20.125 13.3947 20.125 13.3911C20.125 13.3875 20.125 13.3839 20.125 13.3803C20.125 13.3767 20.125 13.3731 20.125 13.3695C20.125 13.3659 20.125 13.3623 20.125 13.3587C20.125 13.3551 20.125 13.3515 20.125 13.3479C20.125 13.3443 20.125 13.3407 20.125 13.3371C20.125 13.3335 20.125 13.3298 20.125 13.3262C20.125 13.3226 20.125 13.319 20.125 13.3154C20.125 13.3117 20.125 13.3081 20.125 13.3045C20.125 13.3008 20.125 13.2972 20.125 13.2936C20.125 13.2899 20.125 13.2863 20.125 13.2827C20.125 13.279 20.125 13.2754 20.125 13.2717C20.125 13.2681 20.125 13.2644 20.125 13.2608C20.125 13.2571 20.125 13.2535 20.125 13.2498C20.125 13.2462 20.125 13.2425 20.125 13.2389C20.125 13.2352 20.125 13.2315 20.125 13.2279C20.125 13.2242 20.125 13.2205 20.125 13.2169C20.125 13.2132 20.125 13.2095 20.125 13.2058C20.125 13.2022 20.125 13.1985 20.125 13.1948C20.125 13.1911 20.125 13.1874 20.125 13.1837C20.125 13.1801 20.125 13.1764 20.125 13.1727C20.125 13.169 20.125 13.1653 20.125 13.1616C20.125 13.1579 20.125 13.1542 20.125 13.1505C20.125 13.1468 20.125 13.1431 20.125 13.1394C20.125 13.1357 20.125 13.132 20.125 13.1282C20.125 13.1245 20.125 13.1208 20.125 13.1171C20.125 13.1134 20.125 13.1097 20.125 13.1059C20.125 13.1022 20.125 13.0985 20.125 13.0948C20.125 13.091 20.125 13.0873 20.125 13.0836C20.125 13.0798 20.125 13.0761 20.125 13.0724C20.125 13.0686 20.125 13.0649 20.125 13.0612C20.125 13.0574 20.125 13.0537 20.125 13.0499C20.125 13.0462 20.125 13.0424 20.125 13.0387C20.125 13.0349 20.125 13.0312 20.125 13.0274C20.125 13.0236 20.125 13.0199 20.125 13.0161C20.125 13.0124 20.125 13.0086 20.125 13.0048C20.125 13.0011 20.125 12.9973 20.125 12.9935C20.125 12.9898 20.125 12.986 20.125 12.9822C20.125 12.9784 20.125 12.9746 20.125 12.9709C20.125 12.9671 20.125 12.9633 20.125 12.9595C20.125 12.9557 20.125 12.9519 20.125 12.9481C20.125 12.9444 20.125 12.9406 20.125 12.9368C20.125 12.933 20.125 12.9292 20.125 12.9254C20.125 12.9216 20.125 12.9178 20.125 12.914C20.125 12.9102 20.125 12.9063 20.125 12.9025C20.125 12.8987 20.125 12.8949 20.125 12.8911C20.125 12.8873 20.125 12.8835 20.125 12.8796C20.125 12.8758 20.125 12.872 20.125 12.8682C20.125 12.8644 20.125 12.8605 20.125 12.8567C20.125 12.8529 20.125 12.849 20.125 12.8452C20.125 12.8414 20.125 12.8375 20.125 12.8337C20.125 12.8299 20.125 12.826 20.125 12.8222C20.125 12.8183 20.125 12.8145 20.125 12.8106C20.125 12.8068 20.125 12.8029 20.125 12.7991C20.125 12.7952 20.125 12.7914 20.125 12.7875C20.125 12.7837 20.125 12.7798 20.125 12.7759C20.125 12.7721 20.125 12.7682 20.125 12.7643C20.125 12.7605 20.125 12.7566 20.125 12.7527C20.125 12.7489 20.125 12.745 20.125 12.7411C20.125 12.7372 20.125 12.7334 20.125 12.7295C20.125 12.7256 20.125 12.7217 20.125 12.7178C20.125 12.714 20.125 12.7101 20.125 12.7062C20.125 12.7023 20.125 12.6984 20.125 12.6945C20.125 12.6906 20.125 12.6867 20.125 12.6828C20.125 12.6789 20.125 12.675 20.125 12.6711C20.125 12.6672 20.125 12.6633 20.125 12.6594C20.125 12.6555 20.125 12.6516 20.125 12.6477C20.125 12.6438 20.125 12.6398 20.125 12.6359C20.125 12.632 20.125 12.6281 20.125 12.6242C20.125 12.6203 20.125 12.6163 20.125 12.6124C20.125 12.6085 20.125 12.6046 20.125 12.6006C20.125 12.5967 20.125 12.5928 20.125 12.5888C20.125 12.5849 20.125 12.581 20.125 12.577C20.125 12.5731 20.125 12.5691 20.125 12.5652C20.125 12.5613 20.125 12.5573 20.125 12.5534C20.125 12.5494 20.125 12.5455 20.125 12.5415C20.125 12.5376 20.125 12.5336 20.125 12.5297C20.125 12.5257 20.125 12.5218 20.125 12.5178C20.125 12.5138 20.125 12.5099 20.125 12.5059C20.125 12.5019 20.125 12.498 20.125 12.494C20.125 12.49 20.125 12.4861 20.125 12.4821C20.125 12.4781 20.125 12.4742 20.125 12.4702C20.125 12.4662 20.125 12.4622 20.125 12.4582C20.125 12.4543 20.125 12.4503 20.125 12.4463C20.125 12.4423 20.125 12.4383 20.125 12.4343C20.125 12.4303 20.125 12.4263 20.125 12.4224C20.125 12.4184 20.125 12.4144 20.125 12.4104C20.125 12.4064 20.125 12.4024 20.125 12.3984C20.125 12.3944 20.125 12.3904 20.125 12.3864C20.125 12.3823 20.125 12.3783 20.125 12.3743C20.125 12.3703 20.125 12.3663 20.125 12.3623C20.125 12.3583 20.125 12.3543 20.125 12.3502C20.125 12.3462 20.125 12.3422 20.125 12.3382C20.125 12.3342 20.125 12.3301 20.125 12.3261C20.125 12.3221 20.125 12.3181 20.125 12.314C20.125 12.31 20.125 12.306 20.125 12.3019C20.125 12.2979 20.125 12.2939 20.125 12.2898C20.125 12.2858 20.125 12.2817 20.125 12.2777C20.125 12.2737 20.125 12.2696 20.125 12.2656C20.125 12.2615 20.125 12.2575 20.125 12.2534C20.125 12.2494 20.125 12.2453 20.125 12.2413C20.125 12.2372 20.125 12.2331 20.125 12.2291C20.125 12.225 20.125 12.221 20.125 12.2169C20.125 12.2128 20.125 12.2088 20.125 12.2047C20.125 12.2006 20.125 12.1966 20.125 12.1925C20.125 12.1884 20.125 12.1844 20.125 12.1803C20.125 12.1762 20.125 12.1721 20.125 12.1681C20.125 12.164 20.125 12.1599 20.125 12.1558C20.125 12.1517 20.125 12.1476 20.125 12.1436C20.125 12.1395 20.125 12.1354 20.125 12.1313C20.125 12.1272 20.125 12.1231 20.125 12.119C20.125 12.1149 20.125 12.1108 20.125 12.1067C20.125 12.1026 20.125 12.0985 20.125 12.0944C20.125 12.0903 20.125 12.0862 20.125 12.0821C20.125 12.078 20.125 12.0739 20.125 12.0698C20.125 12.0657 20.125 12.0616 20.125 12.0575C20.125 12.0534 20.125 12.0492 20.125 12.0451C20.125 12.041 20.125 12.0369 20.125 12.0328C20.125 12.0287 20.125 12.0245 20.125 12.0204C20.125 12.0163 20.125 12.0122 20.125 12.008C20.125 12.0039 20.125 11.9998 20.125 11.9956C20.125 11.9915 20.125 11.9874 20.125 11.9832C20.125 11.9791 20.125 11.975 20.125 11.9708C20.125 11.9667 20.125 11.9626 20.125 11.9584C20.125 11.9543 20.125 11.9501 20.125 11.946C20.125 11.9418 20.125 11.9377 20.125 11.9335C20.125 11.9294 20.125 11.9252 20.125 11.9211C20.125 11.9169 20.125 11.9128 20.125 11.9086C20.125 11.9045 20.125 11.9003 20.125 11.8961C20.125 11.892 20.125 11.8878 20.125 11.8837C20.125 11.8795 20.125 11.8753 20.125 11.8712C20.125 11.867 20.125 11.8628 20.125 11.8587C20.125 11.8545 20.125 11.8503 20.125 11.8461C20.125 11.842 20.125 11.8378 20.125 11.8336C20.125 11.8294 20.125 11.8252 20.125 11.8211C20.125 11.8169 20.125 11.8127 20.125 11.8085C20.125 11.8043 20.125 11.8001 20.125 11.796C20.125 11.7918 20.125 11.7876 20.125 11.7834C20.125 11.7792 20.125 11.775 20.125 11.7708C20.125 11.7666 20.125 11.7624 20.125 11.7582C20.125 11.754 20.125 11.7498 20.125 11.7456C20.125 11.7414 20.125 11.7372 20.125 11.733C20.125 11.7288 20.125 11.7246 20.125 11.7204C20.125 11.7162 20.125 11.712 20.125 11.7077C20.125 11.7035 20.125 11.6993 20.125 11.6951C20.125 11.6909 20.125 11.6867 20.125 11.6824C20.125 11.6782 20.125 11.674 20.125 11.6698C20.125 11.6656 20.125 11.6613 20.125 11.6571C20.125 11.6529 20.125 11.6487 20.125 11.6444C20.125 11.6402 20.125 11.636 20.125 11.6317C20.125 11.6275 20.125 11.6233 20.125 11.619C20.125 11.6148 20.125 11.6106 20.125 11.6063C20.125 11.6021 20.125 11.5978 20.125 11.5936C20.125 11.5894 20.125 11.5851 20.125 11.5809C20.125 11.5766 20.125 11.5724 20.125 11.5681C20.125 11.5639 20.125 11.5596 20.125 11.5554C20.125 11.5511 20.125 11.5469 20.125 11.5426C20.125 11.5384 20.125 11.5341 20.125 11.5298C20.125 11.5256 20.125 11.5213 20.125 11.5171C20.125 11.5128 20.125 11.5085 20.125 11.5043C20.125 11.5 20.125 11.4957 20.125 11.4915C20.125 11.4872 20.125 11.4829 20.125 11.4787C20.125 11.4744 20.125 11.4701 20.125 11.4659C20.125 11.4616 20.125 11.4573 20.125 11.453C20.125 11.4488 20.125 11.4445 20.125 11.4402C20.125 11.4359 20.125 11.4316 20.125 11.4273C20.125 11.4231 20.125 11.4188 20.125 11.4145C20.125 11.4102 20.125 11.4059 20.125 11.4016C20.125 11.3973 20.125 11.3931 20.125 11.3888C20.125 11.3845 20.125 11.3802 20.125 11.3759C20.125 11.3716 20.125 11.3673 20.125 11.363C20.125 11.3587 20.125 11.3544 20.125 11.3501C20.125 11.3458 20.125 11.3415 20.125 11.3372C20.125 11.3329 20.125 11.3286 20.125 11.3243C20.125 11.32 20.125 11.3156 20.125 11.3113C20.125 11.307 20.125 11.3027 20.125 11.2984C20.125 11.2941 20.125 11.2898 20.125 11.2855C20.125 11.2811 20.125 11.2768 20.125 11.2725C20.125 11.2682 20.125 11.2639 20.125 11.2595C20.125 11.2552 20.125 11.2509 20.125 11.2466C20.125 11.2423 20.125 11.2379 20.125 11.2336C20.125 11.2293 20.125 11.2249 20.125 11.2206C20.125 11.2163 20.125 11.212 20.125 11.2076C20.125 11.2033 20.125 11.1989 20.125 11.1946C20.125 11.1903 20.125 11.1859 20.125 11.1816C20.125 11.1773 20.125 11.1729 20.125 11.1686C20.125 11.1642 20.125 11.1599 20.125 11.1556C20.125 11.1512 20.125 11.1469 20.125 11.1425C20.125 11.1382 20.125 11.1338 20.125 11.1295C20.125 11.1251 20.125 11.1208 20.125 11.1164C20.125 11.1121 20.125 11.1077 20.125 11.1034C20.125 11.099 20.125 11.0946 20.125 11.0903C20.125 11.0859 20.125 11.0816 20.125 11.0772C20.125 11.0728 20.125 11.0685 20.125 11.0641C20.125 11.0598 20.125 11.0554 20.125 11.051C20.125 11.0467 20.125 11.0423 20.125 11.0379C20.125 11.0336 20.125 11.0292 20.125 11.0248C20.125 11.0204 20.125 11.0161 20.125 11.0117C20.125 11.0073 20.125 11.003 20.125 10.9986C20.125 10.9942 20.125 10.9898 20.125 10.9854C20.125 10.9811 20.125 10.9767 20.125 10.9723C20.125 10.9679 20.125 10.9635 20.125 10.9592C20.125 10.9548 20.125 10.9504 20.125 10.946C20.125 10.9416 20.125 10.9372 20.125 10.9328C20.125 10.9284 20.125 10.9241 20.125 10.9197C20.125 10.9153 20.125 10.9109 20.125 10.9065C20.125 10.9021 20.125 10.8977 20.125 10.8933C20.125 10.8889 20.125 10.8845 20.125 10.8801C20.125 10.8757 20.125 10.8713 20.125 10.8669C20.125 10.8625 20.125 10.8581 20.125 10.8537C20.125 10.8493 20.125 10.8449 20.125 10.8405C20.125 10.8361 20.125 10.8317 20.125 10.8273C20.125 10.8228 20.125 10.8184 20.125 10.814C20.125 10.8096 20.125 10.8052 20.125 10.8008C20.125 10.7964 20.125 10.792 20.125 10.7875C20.125 10.7831 20.125 10.7787 20.125 10.7743C20.125 10.7699 20.125 10.7654 20.125 10.761C20.125 10.7566 20.125 10.7522 20.125 10.7478C20.125 10.7433 20.125 10.7389 20.125 10.7345C20.125 10.7301 20.125 10.7256 20.125 10.7212C20.125 10.7168 20.125 10.7124 20.125 10.7079C20.125 10.7035 20.125 10.6991 20.125 10.6946C20.125 10.6902 20.125 10.6858 20.125 10.6813C20.125 10.6769 20.125 10.6725 20.125 10.668C20.125 10.6636 20.125 10.6591 20.125 10.6547C20.125 10.6503 20.125 10.6458 20.125 10.6414C20.125 10.6369 20.125 10.6325 20.125 10.6281C20.125 10.6236 20.125 10.6192 20.125 10.6147C20.125 10.6103 20.125 10.6058 20.125 10.6014C20.125 10.5969 20.125 10.5925 20.125 10.588C20.125 10.5836 20.125 10.5791 20.125 10.5747C20.125 10.5702 20.125 10.5658 20.125 10.5613C20.125 10.5569 20.125 10.5524 20.125 10.548C20.125 10.5435 20.125 10.539 20.125 10.5346C20.125 10.5301 20.125 10.5257 20.125 10.5212C20.125 10.5167 20.125 10.5123 20.125 10.5078C20.125 10.5034 20.125 10.4989 20.125 10.4944C20.125 10.49 20.125 10.4855 20.125 10.481C20.125 10.4766 20.125 10.4721 20.125 10.4676C20.125 10.4632 20.125 10.4587 20.125 10.4542C20.125 10.4497 20.125 10.4453 20.125 10.4408C20.125 10.4363 20.125 10.4319 20.125 10.4274C20.125 10.4229 20.125 10.4184 20.125 10.414C20.125 10.4095 20.125 10.405 20.125 10.4005C20.125 10.396 20.125 10.3916 20.125 10.3871C20.125 10.3826 20.125 10.3781 20.125 10.3736C20.125 10.3692 20.125 10.3647 20.125 10.3602C20.125 10.3557 20.125 10.3512 20.125 10.3467C20.125 10.3422 20.125 10.3378 20.125 10.3333C20.125 10.3288 20.125 10.3243 20.125 10.3198C20.125 10.3153 20.125 10.3108 20.125 10.3063C20.125 10.3018 20.125 10.2973 20.125 10.2928C20.125 10.2883 20.125 10.2838 20.125 10.2794C20.125 10.2749 20.125 10.2704 20.125 10.2659C20.125 10.2614 20.125 10.2569 20.125 10.2524C20.125 10.2479 20.125 10.2434 20.125 10.2389C20.125 10.2344 20.125 10.2299 20.125 10.2254C20.125 10.2209 20.125 10.2164 20.125 10.2118C20.125 10.2073 20.125 10.2028 20.125 10.1983C20.125 10.1938 20.125 10.1893 20.125 10.1848C20.125 10.1803 20.125 10.1758 20.125 10.1713C20.125 10.1668 20.125 10.1623 20.125 10.1577C20.125 10.1532 20.125 10.1487 20.125 10.1442C20.125 10.1397 20.125 10.1352 20.125 10.1307C20.125 10.1261 20.125 10.1216 20.125 10.1171C20.125 10.1126 20.125 10.1081 20.125 10.1036C20.125 10.099 20.125 10.0945 20.125 10.09C20.125 10.0855 20.125 10.081 20.125 10.0764C20.125 10.0719 20.125 10.0674 20.125 10.0629C20.125 10.0583 20.125 10.0538 20.125 10.0493C20.125 10.0448 20.125 10.0402 20.125 10.0357C20.125 10.0312 20.125 10.0267 20.125 10.0221C20.125 10.0176 20.125 10.0131 20.125 10.0085C20.125 10.004 20.125 9.99949 20.125 9.99495C20.125 9.99042 20.125 9.98589 20.125 9.98136C20.125 9.97682 20.125 9.97229 20.125 9.96776C20.125 9.96322 20.125 9.95869 20.125 9.95415C20.125 9.94961 20.125 9.94508 20.125 9.94054C20.125 9.936 20.125 9.93146 20.125 9.92692C20.125 9.92239 20.125 9.91785 20.125 9.91331C20.125 9.90877 20.125 9.90422 20.125 9.89968C20.125 9.89514 20.125 9.8906 20.125 9.88605C20.125 9.88151 20.125 9.87697 20.125 9.87242C20.125 9.86788 20.125 9.86333 20.125 9.85879C20.125 9.85424 20.125 9.84969 20.125 9.84515C20.125 9.8406 20.125 9.83605 20.125 9.8315C20.125 9.82695 20.125 9.8224 20.125 9.81785C20.125 9.8133 20.125 9.80875 20.125 9.8042C20.125 9.79965 20.125 9.79509 20.125 9.79054C20.125 9.78599 20.125 9.78143 20.125 9.77688C20.125 9.77233 20.125 9.76777 20.125 9.76322C20.125 9.75866 20.125 9.7541 20.125 9.74955C20.125 9.74499 20.125 9.74043 20.125 9.73587C20.125 9.73131 20.125 9.72676 20.125 9.7222C20.125 9.71764 20.125 9.71308 20.125 9.70852C20.125 9.70396 20.125 9.69939 20.125 9.69483C20.125 9.69027 20.125 9.68571 20.125 9.68114C20.125 9.67658 20.125 9.67202 20.125 9.66745C20.125 9.66289 20.125 9.65832 20.125 9.65376C20.125 9.64919 20.125 9.64463 20.125 9.64006C20.125 9.63549 20.125 9.63093 20.125 9.62636C20.125 9.62179 20.125 9.61722 20.125 9.61265C20.125 9.60808 20.125 9.60351 20.125 9.59894C20.125 9.59437 20.125 9.5898 20.125 9.58523C20.125 9.58066 20.125 9.57609 20.125 9.57151C20.125 9.56694 20.125 9.56237 20.125 9.55779C20.125 9.55322 20.125 9.54865 20.125 9.54407C20.125 9.5395 20.125 9.53492 20.125 9.53035C20.125 9.52577 20.125 9.52119 20.125 9.51662C20.125 9.51204 20.125 9.50746 20.125 9.50289C20.125 9.49831 20.125 9.49373 20.125 9.48915C20.125 9.48457 20.125 9.47999 20.125 9.47541C20.125 9.47083 20.125 9.46625 20.125 9.46167C20.125 9.45709 20.125 9.45251 20.125 9.44793C20.125 9.44335 20.125 9.43876 20.125 9.43418C20.125 9.4296 20.125 9.42501 20.125 9.42043C20.125 9.41585 20.125 9.41126 20.125 9.40668C20.125 9.40209 20.125 9.39751 20.125 9.39292C20.125 9.38834 20.125 9.38375 20.125 9.37916C20.125 9.37458 20.125 9.36999 20.125 9.3654C20.125 9.36081 20.125 9.35623 20.125 9.35164C20.125 9.34705 20.125 9.34246 20.125 9.33787C20.125 9.33328 20.125 9.32869 20.125 9.3241C20.125 9.31951 20.125 9.31492 20.125 9.31033C20.125 9.30574 20.125 9.30115 20.125 9.29656C20.125 9.29196 20.125 9.28737 20.125 9.28278C20.125 9.27819 20.125 9.27359 20.125 9.269C20.125 9.26441 20.125 9.25981 20.125 9.25522C20.125 9.25062 20.125 9.24603 20.125 9.24144C20.125 9.23684 20.125 9.23224 20.125 9.22765C20.125 9.22305 20.125 9.21846 20.125 9.21386C20.125 9.20926 20.125 9.20467 20.125 9.20007C20.125 9.19547 20.125 9.19088 20.125 9.18628C20.125 9.18168 20.125 9.17708 20.125 9.17248C20.125 9.16788 20.125 9.16328 20.125 9.15868C20.125 9.15409 20.125 9.14949 20.125 9.14489C20.125 9.14029 20.125 9.13569 20.125 9.13108C20.125 9.12648 20.125 9.12188 20.125 9.11728C20.125 9.11268 20.125 9.10808 20.125 9.10348C20.125 9.09888 20.125 9.09427 20.125 9.08967C20.125 9.08507 20.125 9.08046 20.125 9.07586C20.125 9.07126 20.125 9.06665 20.125 9.06205C20.125 9.05745 20.125 9.05284 20.125 9.04824C20.125 9.04363 20.125 9.03903 20.125 9.03442C20.125 9.02982 20.125 9.02521 20.125 9.02061C20.125 9.016 20.125 9.0114 20.125 9.00679C20.125 9.00219 20.125 8.99758 20.125 8.99297C20.125 8.98837 20.125 8.98376 20.125 8.97915C20.125 8.97455 20.125 8.96994 20.125 8.96533C20.125 8.96072 20.125 8.95611 20.125 8.95151C20.125 8.9469 20.125 8.94229 20.125 8.93768C20.125 8.93307 20.125 8.92846 20.125 8.92386C20.125 8.91925 20.125 8.91464 20.125 8.91003C20.125 8.90542 20.125 8.90081 20.125 8.8962C20.125 8.89159 20.125 8.88698 20.125 8.88237C20.125 8.87776 20.125 8.87315 20.125 8.86854C20.125 8.86393 20.125 8.85932 20.125 8.85471C20.125 8.85009 20.125 8.84548 20.125 8.84087C20.125 8.83626 20.125 8.83165 20.125 8.82704C20.125 8.82243 20.125 8.81781 20.125 8.8132C20.125 8.80859 20.125 8.80398 20.125 8.79937C20.125 8.79475 20.125 8.79014 20.125 8.78553C20.125 8.78091 20.125 8.7763 20.125 8.77169C20.125 8.76708 20.125 8.76246 20.125 8.75785C20.125 8.75324 20.125 8.74862 20.125 8.74401C20.125 8.7394 20.125 8.73478 20.125 8.73017C20.125 8.72555 20.125 8.72094 20.125 8.71633C20.125 8.71171 20.125 8.7071 20.125 8.70248C20.125 8.69787 20.125 8.69325 20.125 8.68864C20.125 8.68403 20.125 8.67941 20.125 8.6748C20.125 8.67018 20.125 8.66557 20.125 8.66095C20.125 8.65634 20.125 8.65172 20.125 8.64711C20.125 8.64249 20.125 8.63788 20.125 8.63326C20.125 8.62865 20.125 8.62403 20.125 8.61942C20.125 8.6148 20.125 8.61019 20.125 8.60557C20.125 8.60095 20.125 8.59634 20.125 8.59172C20.125 8.58711 20.125 8.58249 20.125 8.57788C20.125 8.57326 20.125 8.56864 20.125 8.56403C20.125 8.55941 20.125 8.5548 20.125 8.55018C20.125 8.54557 20.125 8.54095 20.125 8.53633C20.125 8.53172 20.125 8.5271 20.125 8.52249C20.125 8.51787 20.125 8.51325 20.125 8.50864C20.125 8.50402 20.125 8.49941 20.125 8.49479C20.125 8.49017 20.125 8.48556 20.125 8.48094C20.125 8.47633 20.125 8.47171 20.125 8.46709C20.125 8.46248 20.125 8.45786 20.125 8.45325C20.125 8.44863 20.125 8.44401 20.125 8.4394C20.125 8.43478 20.125 8.43017 20.125 8.42555C20.125 8.42093 20.125 8.41632 20.125 8.4117H18.625ZM18.625 14.5882C18.625 17.2669 19.8728 18.8282 20.7785 19.5972L21.7493 18.4537C21.102 17.9041 20.125 16.7344 20.125 14.5882H18.625ZM21.1053 18.7794H1.89471V20.2794H21.1053V18.7794ZM2.22152 19.5972C3.12725 18.8282 4.375 17.2669 4.375 14.5882H2.875C2.875 16.7344 1.89797 17.9041 1.25068 18.4537L2.22152 19.5972ZM4.375 14.5882C4.375 13.148 4.375 10.775 4.375 8.4117H2.875C2.875 10.775 2.875 13.148 2.875 14.5882H4.375ZM4.375 8.4117C4.375 4.77471 7.52148 1.75 11.5 1.75V0.25C6.78004 0.25 2.875 3.86189 2.875 8.4117H4.375ZM20.125 8.4117C20.125 3.86189 16.22 0.25 11.5 0.25V1.75C15.4785 1.75 18.625 4.77471 18.625 8.4117H20.125ZM8.125 19.5294C8.125 21.3503 9.67952 22.75 11.5 22.75V21.25C10.421 21.25 9.625 20.4375 9.625 19.5294H8.125ZM11.5 22.75C13.3205 22.75 14.875 21.3503 14.875 19.5294H13.375C13.375 20.4375 12.579 21.25 11.5 21.25V22.75ZM1.89471 18.7794C2.07113 18.7794 2.20385 18.8589 2.27884 18.9315C2.34782 18.9984 2.37784 19.0656 2.39132 19.1096C2.40515 19.1547 2.41421 19.2162 2.40079 19.2925C2.38695 19.3711 2.34208 19.4948 2.22152 19.5972L1.25068 18.4537C0.848672 18.795 0.878029 19.2908 0.957117 19.549C1.03433 19.801 1.30827 20.2794 1.89471 20.2794V18.7794ZM20.7785 19.5972C20.6579 19.4948 20.6131 19.3711 20.5992 19.2925C20.5858 19.2162 20.5949 19.1547 20.6087 19.1096C20.6222 19.0656 20.6522 18.9984 20.7212 18.9315C20.7961 18.8589 20.9289 18.7794 21.1053 18.7794V20.2794C21.6917 20.2794 21.9657 19.801 22.0429 19.549C22.122 19.2908 22.1513 18.795 21.7493 18.4537L20.7785 19.5972Z" fill="#333333"/>
</svg>
