<svg width="25" height="25" viewBox="0 0 25 25" fill="none" xmlns="http://www.w3.org/2000/svg">
<path d="M12.3181 23.0224L8.25 24.0394V23.5496L11.0109 21.8931L11.375 21.6746V21.25V14.375V13.3726L10.4134 13.6555L0.75 16.4976V15.429L11.0053 9.39645L11.375 9.17896V8.75V1.875C11.375 1.25171 11.8767 0.75 12.5 0.75C13.1233 0.75 13.625 1.25171 13.625 1.875V8.75V9.17896L13.9947 9.39645L24.25 15.429V16.4976L14.5866 13.6555L13.625 13.3726V14.375V21.25V21.6746L13.9891 21.8931L16.75 23.5496V24.0394L12.6819 23.0224L12.5 22.9769L12.3181 23.0224Z" stroke="#4F4F4F" stroke-width="1.5"/>
</svg>
