<svg width="24" height="24" viewBox="0 0 24 24" fill="none" xmlns="http://www.w3.org/2000/svg">
<path d="M9.16 10.87C9.06 10.86 8.94 10.86 8.83 10.87C6.45 10.79 4.56 8.84 4.56 6.44C4.56 3.99 6.54 2 9 2C11.45 2 13.44 3.99 13.44 6.44C13.43 8.84 11.54 10.79 9.16 10.87Z" stroke="white" stroke-width="1.5" stroke-linecap="round" stroke-linejoin="round"/>
<path d="M16.4098 4C18.3498 4 19.9098 5.57 19.9098 7.5C19.9098 9.39 18.4098 10.93 16.5398 11C16.4598 10.99 16.3698 10.99 16.2798 11" stroke="white" stroke-width="1.5" stroke-linecap="round" stroke-linejoin="round"/>
<path d="M4.16021 14.56C1.74021 16.18 1.74021 18.82 4.16021 20.43C6.91021 22.27 11.4202 22.27 14.1702 20.43C16.5902 18.81 16.5902 16.17 14.1702 14.56C11.4302 12.73 6.92021 12.73 4.16021 14.56Z" stroke="white" stroke-width="1.5" stroke-linecap="round" stroke-linejoin="round"/>
<path d="M18.3398 20C19.0598 19.85 19.7398 19.56 20.2998 19.13C21.8598 17.96 21.8598 16.03 20.2998 14.86C19.7498 14.44 19.0798 14.16 18.3698 14" stroke="white" stroke-width="1.5" stroke-linecap="round" stroke-linejoin="round"/>
</svg>
