<svg width="35" height="35" viewBox="0 0 35 35" fill="none" xmlns="http://www.w3.org/2000/svg">
<circle cx="17.5" cy="17.5" r="17.5" fill="#1E1E1E"/>
<path d="M23.5 17.6499V21.3499C23.5 24.4699 20.59 26.9999 17 26.9999C13.41 26.9999 10.5 24.4699 10.5 21.3499V17.6499C10.5 20.7699 13.41 22.9999 17 22.9999C20.59 22.9999 23.5 20.7699 23.5 17.6499Z" stroke="white" stroke-width="1.5" stroke-linecap="round" stroke-linejoin="round"/>
<path d="M23.5 12.65C23.5 13.56 23.25 14.4 22.81 15.12C21.74 16.88 19.54 18 17 18C14.46 18 12.26 16.88 11.19 15.12C10.75 14.4 10.5 13.56 10.5 12.65C10.5 11.09 11.23 9.68 12.4 8.66C13.58 7.63 15.2 7 17 7C18.8 7 20.42 7.63 21.6 8.65C22.77 9.68 23.5 11.09 23.5 12.65Z" stroke="white" stroke-width="1.5" stroke-linecap="round" stroke-linejoin="round"/>
<path d="M23.5 12.65V17.65C23.5 20.77 20.59 23 17 23C13.41 23 10.5 20.77 10.5 17.65V12.65C10.5 9.53 13.41 7 17 7C18.8 7 20.42 7.63 21.6 8.65C22.77 9.68 23.5 11.09 23.5 12.65Z" stroke="white" stroke-width="1.5" stroke-linecap="round" stroke-linejoin="round"/>
</svg>
