<svg width="35" height="35" viewBox="0 0 35 35" fill="none" xmlns="http://www.w3.org/2000/svg">
<circle cx="17.5" cy="17.5" r="17.5" fill="#1E1E1E"/>
<path d="M12.49 25.8868L8.67013 24.7941L8.97854 24.2599L11.9912 24.2092L12.3309 24.2035L12.5007 23.9093L15.6632 18.4317L16.0642 17.7372L15.2848 17.5485L6.16127 15.3396L6.73874 14.3394L17.736 14.25L18.0791 14.2472L18.2507 13.95L21.4132 8.47241C21.7248 7.93276 22.4104 7.74907 22.95 8.06063C23.4896 8.3722 23.6733 9.05776 23.3618 9.59741L20.1993 15.075L20.0277 15.3722L20.1969 15.6708L25.6181 25.2394L25.0406 26.2396L18.5658 19.4428L18.0127 18.8622L17.6118 19.5567L14.4493 25.0343L14.2794 25.3285L14.4443 25.6255L15.9067 28.2599L15.5983 28.7941L12.7421 26.0323L12.6342 25.9281L12.49 25.8868Z" stroke="white" stroke-width="1.2"/>
</svg>
