<svg width="74" height="74" viewBox="0 0 74 74" fill="none" xmlns="http://www.w3.org/2000/svg">
<circle cx="37" cy="37" r="37" fill="#FF2A1C"/>
<path d="M48.25 29.4756C44.0875 29.0631 39.9 28.8506 35.725 28.8506C33.25 28.8506 30.775 28.9756 28.3 29.2256L25.75 29.4756" stroke="white" stroke-width="1.5" stroke-linecap="round" stroke-linejoin="round"/>
<path d="M32.625 28.2125L32.9 26.575C33.1 25.3875 33.25 24.5 35.3625 24.5H38.6375C40.75 24.5 40.9125 25.4375 41.1 26.5875L41.375 28.2125" stroke="white" stroke-width="1.5" stroke-linecap="round" stroke-linejoin="round"/>
<path d="M45.5625 33.4248L44.75 46.0123C44.6125 47.9748 44.5 49.4998 41.0125 49.4998H32.9875C29.5 49.4998 29.3875 47.9748 29.25 46.0123L28.4375 33.4248" stroke="white" stroke-width="1.5" stroke-linecap="round" stroke-linejoin="round"/>
<path d="M34.9121 42.625H39.0746" stroke="white" stroke-width="1.5" stroke-linecap="round" stroke-linejoin="round"/>
<path d="M33.875 37.625H40.125" stroke="white" stroke-width="1.5" stroke-linecap="round" stroke-linejoin="round"/>
</svg>
